<svg xmlns="http://www.w3.org/2000/svg" width="724" height="152" viewBox="0 0 724 152"><defs><style>.a{fill:#6dcbc9;}.b{fill:#48545e;}.c,.d{fill:#fff;}.d{stroke:#fff;stroke-width:0.5px;}</style></defs><g transform="translate(0 -127)"><g transform="translate(0 -49)"><g transform="translate(22 -83)"><path class="a" d="M0,0H424.033V152H0Z" transform="translate(277.967 259)"/><rect class="b" width="293" height="152" transform="translate(-22 259)"/><g transform="translate(-128 -145)"><g transform="translate(434.092 481.039)"><path class="c" d="M7.056-2.436V-27.888h4.368c8.316,0,11.55,3.78,11.55,12.81,0,8.61-3.7,12.642-11.676,12.642ZM4.242,0h7.392c9.324,0,14.28-5.376,14.28-15.582,0-9.786-4.788-14.742-14.28-14.742H4.242ZM44.016-6.342c-1.554,3.234-3.36,4.62-6.174,4.62-4.158,0-6.468-3.234-6.51-9.324h14.49v-.714c0-6.972-2.94-10.626-8.232-10.626-5.25,0-8.862,4.284-8.862,11.55,0,6.888,3.486,11.214,8.946,11.214,3.864,0,6.342-1.722,8.274-5.67Zm-.63-6.594H31.332c.42-4.7,2.856-7.308,6.3-7.308S43.26-17.682,43.386-12.936ZM62.664-6.342c-1.512,3.192-3.15,4.62-5.88,4.62-3.99,0-6.3-3.276-6.3-9.324,0-5.922,2.394-9.2,6.132-9.2,2.646,0,4.41,1.47,5.586,4.62l2.268-.882c-1.512-3.948-4.116-5.88-7.938-5.88-5.124,0-8.694,4.284-8.694,11.55,0,6.93,3.486,11.214,8.946,11.214,3.654,0,5.964-1.68,7.854-5.628ZM68.712,0h2.562V-21.966H68.712Zm-.294-26.628h3.15v-3.7h-3.15ZM77.112-5.5,75.18-3.948A9.706,9.706,0,0,0,83.454.378c4.536,0,7.476-2.646,7.476-6.3,0-3.486-2.226-4.83-6.594-6.468-3.654-1.386-5.8-1.932-5.8-4.284,0-2.142,1.554-3.612,3.948-3.612,2.436,0,4.242,1.05,5.922,3.276l1.848-1.344a8.909,8.909,0,0,0-7.308-4.032c-4.368,0-7.1,2.478-7.1,5.838s2.31,4.62,6.762,6.258c3.612,1.344,5.67,1.932,5.67,4.578,0,2.31-1.806,4.032-4.536,4.032C81.186-1.68,79-2.982,77.112-5.5ZM95.256,0h2.562V-21.966H95.256Zm-.294-26.628h3.15v-3.7h-3.15ZM102.228-11c0,7.14,3.654,11.382,8.988,11.382S120.2-3.864,120.2-11s-3.654-11.34-8.988-11.34S102.228-18.144,102.228-11Zm2.6,0c0-5.964,2.478-9.2,6.384-9.2s6.342,3.234,6.342,9.2-2.436,9.24-6.342,9.24S104.832-5.04,104.832-11ZM124.278,0h2.6V-16c2.352-2.73,4.662-4.074,6.846-4.074,3.36,0,4.116,1.848,4.116,5.712V0h2.562V-15.288q0-7.056-5.922-7.056c-2.436,0-5,1.26-7.6,3.822v-3.444h-2.6Zm31.206,0h2.73l3.024-9.954h11.088L175.35,0h2.9l-9.492-30.324h-3.78Zm6.51-12.39,4.83-16,4.788,16ZM182.112,0h2.562V-21.966h-2.562Zm-.294-26.628h3.15v-3.7h-3.15ZM203.742-2.856,204.414,0h2.1a19.038,19.038,0,0,1-.168-3.192V-30.324h-2.6V-19.11h-.21a8.707,8.707,0,0,0-6.636-3.234c-4.494,0-7.812,4.074-7.812,11.34S192.4.378,196.9.378a8.707,8.707,0,0,0,6.636-3.234Zm0-3.024c-2.1,2.772-4.074,4.116-6.426,4.116-3.528,0-5.628-3.234-5.628-9.24,0-6.048,2.142-9.282,5.628-9.282,2.226,0,4.326,1.386,6.426,4.158Z" transform="translate(-0.092 37.961)"/></g><g transform="translate(433 446)"><path class="c" d="M17.955,0h3.4V-12.915H11.865v3.99h4.76C16.2-5.67,14.28-3.78,11.585-3.78,8.155-3.78,6.16-6.86,6.16-12.7c0-5.985,1.925-9.065,5.565-9.065,2.2,0,3.71,1.155,4.725,3.535l4.34-1.085c-1.26-4.165-4.41-6.44-8.96-6.44C5.25-25.76,1.3-21.1,1.3-12.985c0,8.5,3.71,13.4,9.7,13.4a7.807,7.807,0,0,0,6.72-3.08Zm21.21-3.605L35.98-5.565c-1.015,1.61-2.1,2.345-3.745,2.345-2.555,0-3.85-1.75-3.885-5.215H39.34c0-.315.035-.63.035-.945,0-5.95-2.835-9.31-7.595-9.31s-7.7,3.465-7.7,9.555c0,6.02,2.905,9.485,7.77,9.485C35.245.35,37.765-1.015,39.165-3.605ZM28.42-11.55c.175-2.485,1.4-3.885,3.36-3.885,2.065,0,3.325,1.435,3.325,3.885ZM42.315,0H46.62V-13.125a6.135,6.135,0,0,1,4.06-2.03c1.575,0,2.1,1.015,2.1,3.255V0h4.34V-12.74c0-3.955-1.75-5.95-5.145-5.95-2.03,0-3.64.875-5.67,2.52v-2.17h-3.99Zm32.76-3.605L71.89-5.565c-1.015,1.61-2.1,2.345-3.745,2.345-2.555,0-3.85-1.75-3.885-5.215H75.25c0-.315.035-.63.035-.945,0-5.95-2.835-9.31-7.595-9.31s-7.7,3.465-7.7,9.555c0,6.02,2.9,9.485,7.77,9.485C71.155.35,73.675-1.015,75.075-3.605ZM64.33-11.55c.175-2.485,1.4-3.885,3.36-3.885,2.065,0,3.325,1.435,3.325,3.885ZM83.125-5.5V-14.77h3.57v-3.57h-3.57v-5.88h-4.34v5.88H76.4v3.57h2.38V-3.92C78.785-.945,80.08.385,83.09.385A18.087,18.087,0,0,0,86.695.07V-3.5a12.372,12.372,0,0,1-1.785.14C83.335-3.36,83.125-3.955,83.125-5.5ZM89.25,0h4.34V-18.34H89.25Zm0-21.35h4.34v-4.095H89.25ZM108.29-6.09c-.91,1.89-2.135,2.765-3.85,2.765-2.415,0-3.57-1.82-3.57-5.6,0-4.2,1.19-6.16,3.85-6.16,1.54,0,2.485.91,3.115,2.765l3.64-1.575a6.945,6.945,0,0,0-7.035-4.76c-4.865,0-7.91,3.535-7.91,9.485,0,6.265,2.73,9.52,7.91,9.52a7.242,7.242,0,0,0,7.21-4.655ZM129.85,0h4.83V-21.245h6.685v-4.2h-18.2v4.2h6.685Zm27.965-3.605-3.185-1.96c-1.015,1.61-2.1,2.345-3.745,2.345-2.555,0-3.85-1.75-3.885-5.215h10.99c0-.315.035-.63.035-.945,0-5.95-2.835-9.31-7.6-9.31s-7.7,3.465-7.7,9.555c0,6.02,2.9,9.485,7.77,9.485C153.895.35,156.415-1.015,157.815-3.605ZM147.07-11.55c.175-2.485,1.4-3.885,3.36-3.885,2.065,0,3.325,1.435,3.325,3.885Zm12.39,8.225a8.332,8.332,0,0,0,7.175,3.71c3.885,0,6.4-2.24,6.4-5.635,0-3.185-1.68-4.445-5.04-5.74-2.59-1.015-4.1-1.33-4.1-2.555,0-1.085.84-1.82,2.345-1.82a4.931,4.931,0,0,1,3.57,1.855l2.73-2.38a7.788,7.788,0,0,0-6.2-2.8c-3.815,0-6.3,2.31-6.3,5.355s1.96,4.235,5.74,5.67c2.065.77,3.36,1.12,3.36,2.625,0,1.225-.945,2.03-2.555,2.03-1.505,0-2.835-.875-4.2-2.625ZM180.915-5.5V-14.77h3.57v-3.57h-3.57v-5.88h-4.34v5.88H174.2v3.57h2.38V-3.92c0,2.975,1.295,4.305,4.3,4.305a18.087,18.087,0,0,0,3.6-.315V-3.5a12.372,12.372,0,0,1-1.785.14C181.125-3.36,180.915-3.955,180.915-5.5ZM187.04,0h4.34V-18.34h-4.34Zm0-21.35h4.34v-4.095h-4.34ZM195.615,0h4.305V-13.125a6.135,6.135,0,0,1,4.06-2.03c1.575,0,2.1,1.015,2.1,3.255V0h4.34V-12.74c0-3.955-1.75-5.95-5.145-5.95-2.03,0-3.64.875-5.67,2.52v-2.17h-3.99Zm20.4-1.3c-2.17.7-3.185,1.645-3.185,3.36,0,2.975,2.625,4.585,7.77,4.585,5.635,0,8.61-2.065,8.61-5.67,0-3.5-1.995-4.41-6.72-4.76-3.15-.245-4.83-.14-4.83-1.365,0-.49.385-.91,1.19-1.225a8.307,8.307,0,0,0,1.995.21c4.27,0,6.86-2.31,6.86-5.845a5.651,5.651,0,0,0-.84-3.29,2.688,2.688,0,0,1,1.61-.455,8.12,8.12,0,0,1,.84.07V-18.9a3.8,3.8,0,0,0-.63-.035,4.058,4.058,0,0,0-3.36,1.75,7.253,7.253,0,0,0-4.585-1.54c-4.165,0-6.965,2.625-6.965,6.37a5.271,5.271,0,0,0,2.555,4.795c-1.785.91-2.73,2.17-2.73,3.465C213.6-2.835,214.375-2.1,216.02-1.3Zm1.855-11.025a2.816,2.816,0,0,1,2.87-3.08,2.885,2.885,0,0,1,3.08,3.01,2.783,2.783,0,0,1-2.975,2.94A2.679,2.679,0,0,1,217.875-12.32ZM218.82-.385l4.025.21c1.645.07,2.45.455,2.45,1.47,0,1.3-1.715,2.275-4.76,2.275-2.24,0-3.57-.84-3.57-2.03C216.965.77,217.56.21,218.82-.385Z" transform="translate(0 32)"/></g></g><g transform="translate(-34.246 -3.206)"><path class="d" d="M-213.823-12.062a11.927,11.927,0,0,0,5.254,10.175A16.208,16.208,0,0,0-199.356.592a21.8,21.8,0,0,0,5.846-.851,7.451,7.451,0,0,1,1.3-.37A13.906,13.906,0,0,0-190.439-5.7a.778.778,0,0,0-.962-.148,7.888,7.888,0,0,1-7.733,5.291c-6.068,0-10.989-4.292-10.989-12.062,0-7.659,4.81-11.248,10.471-11.248,5.365,0,7.03,2.886,7.585,5.4a.78.78,0,0,0,1-.074c-.3-2.257-.481-4.588-.518-5.439a2.791,2.791,0,0,1-1.036-.148,28.55,28.55,0,0,0-6.549-.888,15.945,15.945,0,0,0-9.99,3.145A12.291,12.291,0,0,0-213.823-12.062Zm29.008,5.994c-2.368.851-3.071,1.7-3.071,3.145a3.462,3.462,0,0,0,1.147,2.59,3.829,3.829,0,0,0,2.59.851,5.476,5.476,0,0,0,2.664-.925,5.681,5.681,0,0,1,1.443-.74c.222,0,.444.3.592.518a2.953,2.953,0,0,0,2.4,1.147,3.882,3.882,0,0,0,3.108-1.628c0-.259-.111-.481-.259-.481-.111,0-.3.148-.481.259a2.126,2.126,0,0,1-.925.222c-1.443,0-1.776-1.517-1.7-3.219l.222-6.438c.111-2.775-1.184-4.329-3.848-4.329-2.7,0-6.882,2.627-6.882,4.551a.468.468,0,0,0,.518.518,3.982,3.982,0,0,0,2.109-.7c.3-.222.333-.666.37-1.258.074-1.147,1.332-1.665,2.368-1.665,2.294,0,2.738,1.85,2.7,3.219l-.037,1.7c0,.555-.074.888-.629,1.073Zm-.222,2.7c0-1.443,1.073-2,3.256-2.738a6.983,6.983,0,0,1,1.517-.37c.222,0,.37.074.37.481l-.074,2.183c-.037.777-.037,1.3-.481,1.739a4.184,4.184,0,0,1-2.257.925A2.23,2.23,0,0,1-185.037-3.367Zm14.948-.777c0,2.664-.037,3.034-1.406,3.219l-.777.111a.647.647,0,0,0,.074.925C-171.162.037-170.052,0-168.72,0c1.295,0,2.368.037,3.367.111a.647.647,0,0,0,.074-.925l-.666-.111c-1.332-.222-1.406-.555-1.406-3.219V-9.8a3.117,3.117,0,0,1,.555-2.22,4.035,4.035,0,0,1,3.145-1.3c2.516,0,3.478,1.554,3.478,3.663v5.513c0,2.664-.037,3-1.406,3.219l-.7.111a.647.647,0,0,0,.074.925c1-.074,2.109-.111,3.441-.111,1.295,0,2.368.037,3.478.111a.647.647,0,0,0,.074-.925l-.814-.111c-1.332-.185-1.406-.555-1.406-3.219v-6.364c0-2.479-1.258-4.588-4.329-4.588a10.144,10.144,0,0,0-5.18,1.887.388.388,0,0,1-.407-.407c0-.333,0-.888.074-1.739a.432.432,0,0,0-.407-.259,20.161,20.161,0,0,1-3.7,1.813.506.506,0,0,0-.037.666l.333.222c1,.666,1,.851,1,2.294Zm26.6-10.952c-6.142,0-8.954,4.255-8.954,8.251a7.366,7.366,0,0,0,2.146,5.476A7.17,7.17,0,0,0-145.225.518a6.742,6.742,0,0,0,6.179-3.774.584.584,0,0,0-.666-.518,4.514,4.514,0,0,1-4.107,2.22c-3.959,0-5.957-3.441-5.957-6.327,0-3.922,2.516-5.957,5.106-5.957a5.047,5.047,0,0,1,3.7,1.961.646.646,0,0,0,.518.259c.444,0,.814-.7.814-1.369a2.1,2.1,0,0,0-.555-1.48A9.228,9.228,0,0,0-143.486-15.1ZM-126.8-9.472c1.554,0,2.072-.037,2.183-.259a2.286,2.286,0,0,0,.148-.962c0-2.22-2.072-4.4-5.254-4.4-4.44,0-7.437,3.811-7.437,8.362a7.856,7.856,0,0,0,1.554,4.81A6.631,6.631,0,0,0-130.24.518a6.467,6.467,0,0,0,5.809-3.441.489.489,0,0,0-.666-.444,3.988,3.988,0,0,1-3.4,1.813c-3.959,0-6.142-3.182-6.142-6.919,0-.925.037-1,1-1Zm-7.178-1.11c-.259,0-.259-.111-.259-.185.037-1.221,1.924-3.219,4.107-3.219,2.146,0,2.849,1.3,2.849,2.331,0,.481-.111.629-.222.7-.3.222-1.11.37-3.848.37Zm14.319,6.438c0,2.664-.037,3-1.406,3.219l-.7.111a.647.647,0,0,0,.074.925c.962-.074,2.072-.111,3.4-.111,1.295,0,2.368.037,4.107.111a.647.647,0,0,0,.074-.925l-1.332-.111c-1.406-.111-1.48-.555-1.48-3.219V-9.176a5.628,5.628,0,0,1,.481-2.849,1.642,1.642,0,0,1,1.332-.74,3.034,3.034,0,0,1,1.628.592,1.421,1.421,0,0,0,.814.259,1.641,1.641,0,0,0,1.591-1.7,1.533,1.533,0,0,0-1.665-1.48c-1.369,0-2.775,1.147-4.07,2.22q-.111-.056-.111-.333v-2.146c0-.148-.111-.222-.3-.259a28.658,28.658,0,0,1-3.737,1.813.506.506,0,0,0-.037.666l.333.222c1,.666,1,.851,1,2.294Zm20.572-7.918A11.927,11.927,0,0,0-93.832-1.887,16.208,16.208,0,0,0-84.619.592a21.8,21.8,0,0,0,5.846-.851,7.45,7.45,0,0,1,1.295-.37A13.906,13.906,0,0,0-75.7-5.7a.778.778,0,0,0-.962-.148A7.888,7.888,0,0,1-84.4-.555c-6.068,0-10.989-4.292-10.989-12.062,0-7.659,4.81-11.248,10.471-11.248,5.365,0,7.03,2.886,7.585,5.4a.78.78,0,0,0,1-.074c-.3-2.257-.481-4.588-.518-5.439a2.791,2.791,0,0,1-1.036-.148,28.55,28.55,0,0,0-6.549-.888,15.945,15.945,0,0,0-9.99,3.145A12.291,12.291,0,0,0-99.086-12.062Zm36.3,2.59c1.554,0,2.072-.037,2.183-.259a2.286,2.286,0,0,0,.148-.962c0-2.22-2.072-4.4-5.254-4.4-4.44,0-7.437,3.811-7.437,8.362A7.856,7.856,0,0,0-71.6-1.924,6.631,6.631,0,0,0-66.23.518a6.467,6.467,0,0,0,5.809-3.441.489.489,0,0,0-.666-.444,3.988,3.988,0,0,1-3.4,1.813c-3.959,0-6.142-3.182-6.142-6.919,0-.925.037-1,1-1Zm-7.178-1.11c-.259,0-.259-.111-.259-.185.037-1.221,1.924-3.219,4.107-3.219,2.146,0,2.849,1.3,2.849,2.331,0,.481-.111.629-.222.7-.3.222-1.11.37-3.848.37Zm14.319,6.438c0,2.664-.037,3.034-1.406,3.219l-.777.111a.647.647,0,0,0,.074.925C-56.721.037-55.611,0-54.279,0c1.3,0,2.368.037,3.367.111a.647.647,0,0,0,.074-.925L-51.5-.925c-1.332-.222-1.406-.555-1.406-3.219V-9.8a3.117,3.117,0,0,1,.555-2.22,4.035,4.035,0,0,1,3.145-1.3c2.516,0,3.478,1.554,3.478,3.663v5.513c0,2.664-.037,3-1.406,3.219l-.7.111a.647.647,0,0,0,.074.925c1-.074,2.109-.111,3.441-.111,1.295,0,2.368.037,3.478.111a.647.647,0,0,0,.074-.925l-.814-.111c-1.332-.185-1.406-.555-1.406-3.219v-6.364c0-2.479-1.258-4.588-4.329-4.588a10.144,10.144,0,0,0-5.18,1.887.388.388,0,0,1-.407-.407c0-.333,0-.888.074-1.739a.432.432,0,0,0-.407-.259,20.161,20.161,0,0,1-3.7,1.813.506.506,0,0,0-.037.666l.333.222c1,.666,1,.851,1,2.294Zm27.158-8.88a1.183,1.183,0,0,0-.037-1.554h-4.107c-.629,0-.666-.037-.666-.7v-1.665c-.148-.259-.592-.259-.777-.185a9.159,9.159,0,0,1-1.554,2.183A7.347,7.347,0,0,1-38-13.8a.616.616,0,0,0,.111.777h1.036c.74,0,.777.074.777,1.073v8.473c0,2.22.666,4,3.848,4a5.123,5.123,0,0,0,3.885-1.7c.074-.222-.074-.629-.37-.629-.111,0-.592.407-.925.518a2.825,2.825,0,0,1-1,.185c-2.442,0-2.7-1.961-2.7-4.107v-6.919c0-.777.037-.888.666-.888ZM-15.8-9.472c1.554,0,2.072-.037,2.183-.259a2.286,2.286,0,0,0,.148-.962c0-2.22-2.072-4.4-5.254-4.4-4.44,0-7.437,3.811-7.437,8.362a7.856,7.856,0,0,0,1.554,4.81A6.631,6.631,0,0,0-19.24.518a6.467,6.467,0,0,0,5.809-3.441.489.489,0,0,0-.666-.444,3.987,3.987,0,0,1-3.4,1.813c-3.959,0-6.142-3.182-6.142-6.919,0-.925.037-1,1-1Zm-7.178-1.11c-.259,0-.259-.111-.259-.185.037-1.221,1.924-3.219,4.107-3.219,2.146,0,2.849,1.3,2.849,2.331,0,.481-.111.629-.222.7-.3.222-1.11.37-3.848.37ZM-8.658-4.144c0,2.664-.037,3-1.406,3.219l-.7.111a.647.647,0,0,0,.074.925C-9.731.037-8.621,0-7.289,0c1.295,0,2.368.037,4.107.111a.647.647,0,0,0,.074-.925L-4.44-.925c-1.406-.111-1.48-.555-1.48-3.219V-9.176a5.628,5.628,0,0,1,.481-2.849,1.642,1.642,0,0,1,1.332-.74,3.034,3.034,0,0,1,1.628.592,1.421,1.421,0,0,0,.814.259,1.641,1.641,0,0,0,1.591-1.7A1.533,1.533,0,0,0-1.739-15.1c-1.369,0-2.775,1.147-4.07,2.22q-.111-.056-.111-.333v-2.146c0-.148-.111-.222-.3-.259A28.658,28.658,0,0,1-9.953-13.8a.506.506,0,0,0-.037.666l.333.222c1,.666,1,.851,1,2.294Z" transform="translate(276.964 375.08)"/><path class="d" d="M-189.44-18.426c-1.147-2.368-2.072-4.662-1.924-6.1-1.221.111-2.22.111-3.071.111-.925,0-1.813-.037-2.923-.111a.692.692,0,0,0-.148.925l.592.074c2.257.3,2.553.851,2.479,3.182-.074,2.035-.222,5.18-.407,8.251-.222,3.663-.407,5.7-.629,8.14-.222,2.59-.74,2.812-2.294,3.034l-.814.111a.731.731,0,0,0,.074.925c1.258-.074,2.59-.111,3.774-.111,1.406,0,2.849.037,4.107.111.259-.111.3-.7.037-.925l-1.406-.111c-1.443-.111-1.665-.7-1.665-3.441,0-3.145.148-6.438.259-8.695.111-2.146.222-4.292.37-6.586h.074c.814,1.7,1.591,3.626,2.368,5.328l3.33,7.141c.851,1.813,2.627,5.439,3.256,7.4a.452.452,0,0,0,.333.148.429.429,0,0,0,.37-.148c.666-1.7,2.331-5.18,4-8.436l3.293-6.475c.74-1.443,2.146-4.4,2.4-4.81h.074l.111,15.429c0,2.368,0,2.96-1.813,3.145l-1.073.111a.685.685,0,0,0,.074.925C-174.714.037-173.049,0-171.754,0c1.332,0,2.849.037,4.366.111a.682.682,0,0,0,.074-.925L-168.5-.925c-1.739-.148-1.7-1.147-1.813-3-.3-5.328-.333-12.173-.407-16.1-.037-2.59.259-3.293,2.59-3.515l.777-.074a.779.779,0,0,0-.037-.925c-1.147.074-2.368.111-3.293.111-.74,0-1.517,0-2.775-.111-.074,1.7-1.147,3.737-2.812,7.1l-3.478,7.067c-.925,1.887-1.85,3.811-2.849,5.55h-.074c-.888-1.628-1.7-3.33-2.553-5.069Zm28.009,12.358c-2.368.851-3.071,1.7-3.071,3.145a3.462,3.462,0,0,0,1.147,2.59,3.829,3.829,0,0,0,2.59.851A5.476,5.476,0,0,0-158.1-.407a5.681,5.681,0,0,1,1.443-.74c.222,0,.444.3.592.518a2.953,2.953,0,0,0,2.4,1.147,3.882,3.882,0,0,0,3.108-1.628c0-.259-.111-.481-.259-.481-.111,0-.3.148-.481.259a2.126,2.126,0,0,1-.925.222c-1.443,0-1.776-1.517-1.7-3.219l.222-6.438c.111-2.775-1.184-4.329-3.848-4.329-2.7,0-6.882,2.627-6.882,4.551a.468.468,0,0,0,.518.518,3.982,3.982,0,0,0,2.109-.7c.3-.222.333-.666.37-1.258.074-1.147,1.332-1.665,2.368-1.665,2.294,0,2.738,1.85,2.7,3.219l-.037,1.7c0,.555-.074.888-.629,1.073Zm-.222,2.7c0-1.443,1.073-2,3.256-2.738a6.983,6.983,0,0,1,1.517-.37c.222,0,.37.074.37.481l-.074,2.183c-.037.777-.037,1.3-.481,1.739a4.184,4.184,0,0,1-2.257.925A2.23,2.23,0,0,1-161.653-3.367Zm18.2-11.729c-2.812,0-5.032,1.517-5.032,4.218,0,2.035,1.517,3.33,3.663,4.551,1.369.777,2.849,1.7,2.849,3.4a2.279,2.279,0,0,1-2.479,2.368c-2.109,0-3.293-1.776-3.922-3.811a.628.628,0,0,0-.851.037,11,11,0,0,0,.444,3.737,6.155,6.155,0,0,0,3.959,1.11c2.738,0,5.328-1.406,5.328-4.218,0-2.627-1.813-3.885-3.774-4.995-1.295-.74-2.849-1.554-2.849-3.071a2.187,2.187,0,0,1,2.368-2.257c1.517,0,2.627,1.073,3.256,2.7a.644.644,0,0,0,.888-.111,8.642,8.642,0,0,0-.592-3A6.547,6.547,0,0,0-143.449-15.1Zm12.469,0c-2.812,0-5.032,1.517-5.032,4.218,0,2.035,1.517,3.33,3.663,4.551,1.369.777,2.849,1.7,2.849,3.4a2.279,2.279,0,0,1-2.479,2.368c-2.109,0-3.293-1.776-3.922-3.811a.628.628,0,0,0-.851.037,11,11,0,0,0,.444,3.737,6.155,6.155,0,0,0,3.959,1.11c2.738,0,5.328-1.406,5.328-4.218,0-2.627-1.813-3.885-3.774-4.995-1.295-.74-2.849-1.554-2.849-3.071a2.187,2.187,0,0,1,2.368-2.257c1.517,0,2.627,1.073,3.256,2.7a.644.644,0,0,0,.888-.111,8.642,8.642,0,0,0-.592-3A6.547,6.547,0,0,0-130.98-15.1Zm39.331,9.25c0-1.887.037-2.923,1.591-3.108l.592-.074a.646.646,0,0,0-.037-.925c-1.221.074-2.479.111-3.922.111-2.183,0-4.218-.037-5.291-.111a.618.618,0,0,0,0,.925l1.628.185c2.294.259,2.405.481,2.405,3.589v1.48a4.122,4.122,0,0,1-.37,2.109c-.407.629-1.776,1.11-4.07,1.11-7.437,0-11.1-5.587-11.1-12.691,0-5.55,3.145-10.656,10.323-10.656,3.774,0,6.549,1.258,7.585,5.254.222.222.888.185,1-.111a41.627,41.627,0,0,1-.555-5.365,9.764,9.764,0,0,1-2.294-.333,22.113,22.113,0,0,0-4.7-.555c-5.587,0-9.25,1.739-11.729,4.329a12.7,12.7,0,0,0-3.33,8.769,11.647,11.647,0,0,0,3.4,8.4C-107.67-.629-103.637.592-99.234.592A28.922,28.922,0,0,0-92.611-.37,8.29,8.29,0,0,1-90.8-.7a.3.3,0,0,0,.037-.444c-.666-.259-.888-1.147-.888-2.627Zm15.614-3.626c1.554,0,2.072-.037,2.183-.259a2.286,2.286,0,0,0,.148-.962c0-2.22-2.072-4.4-5.254-4.4-4.44,0-7.437,3.811-7.437,8.362a7.856,7.856,0,0,0,1.554,4.81A6.631,6.631,0,0,0-79.476.518a6.467,6.467,0,0,0,5.809-3.441.489.489,0,0,0-.666-.444,3.988,3.988,0,0,1-3.4,1.813c-3.959,0-6.142-3.182-6.142-6.919,0-.925.037-1,1-1Zm-7.178-1.11c-.259,0-.259-.111-.259-.185.037-1.221,1.924-3.219,4.107-3.219,2.146,0,2.849,1.3,2.849,2.331,0,.481-.111.629-.222.7-.3.222-1.11.37-3.848.37Zm14.319,6.438c0,2.664-.037,3.034-1.406,3.219l-.777.111A.647.647,0,0,0-71,.111C-69.967.037-68.857,0-67.525,0c1.295,0,2.368.037,3.367.111a.647.647,0,0,0,.074-.925l-.666-.111c-1.332-.222-1.406-.555-1.406-3.219V-9.8a3.117,3.117,0,0,1,.555-2.22,4.035,4.035,0,0,1,3.145-1.3c2.516,0,3.478,1.554,3.478,3.663v5.513c0,2.664-.037,3-1.406,3.219l-.7.111a.647.647,0,0,0,.074.925C-60.014.037-58.9,0-57.572,0c1.295,0,2.368.037,3.478.111a.647.647,0,0,0,.074-.925l-.814-.111c-1.332-.185-1.406-.555-1.406-3.219v-6.364c0-2.479-1.258-4.588-4.329-4.588a10.144,10.144,0,0,0-5.18,1.887.388.388,0,0,1-.407-.407c0-.333,0-.888.074-1.739a.432.432,0,0,0-.407-.259,20.161,20.161,0,0,1-3.7,1.813.506.506,0,0,0-.037.666l.333.222c1,.666,1,.851,1,2.294Zm27.972-5.328c1.554,0,2.072-.037,2.183-.259a2.286,2.286,0,0,0,.148-.962c0-2.22-2.072-4.4-5.254-4.4-4.44,0-7.437,3.811-7.437,8.362a7.856,7.856,0,0,0,1.554,4.81A6.631,6.631,0,0,0-44.363.518a6.467,6.467,0,0,0,5.809-3.441.489.489,0,0,0-.666-.444,3.988,3.988,0,0,1-3.4,1.813c-3.959,0-6.142-3.182-6.142-6.919,0-.925.037-1,1-1Zm-7.178-1.11c-.259,0-.259-.111-.259-.185.037-1.221,1.924-3.219,4.107-3.219,2.146,0,2.849,1.3,2.849,2.331,0,.481-.111.629-.222.7-.3.222-1.11.37-3.848.37Zm14.319,6.438c0,2.664-.037,3-1.406,3.219l-.7.111a.647.647,0,0,0,.074.925C-34.854.037-33.744,0-32.412,0c1.3,0,2.368.037,4.107.111a.647.647,0,0,0,.074-.925l-1.332-.111c-1.406-.111-1.48-.555-1.48-3.219V-9.176a5.628,5.628,0,0,1,.481-2.849,1.642,1.642,0,0,1,1.332-.74,3.034,3.034,0,0,1,1.628.592,1.421,1.421,0,0,0,.814.259,1.641,1.641,0,0,0,1.591-1.7,1.533,1.533,0,0,0-1.665-1.48c-1.369,0-2.775,1.147-4.07,2.22q-.111-.056-.111-.333v-2.146c0-.148-.111-.222-.3-.259A28.658,28.658,0,0,1-35.076-13.8a.506.506,0,0,0-.037.666l.333.222c1,.666,1,.851,1,2.294Zm13.542-1.924c-2.368.851-3.071,1.7-3.071,3.145a3.462,3.462,0,0,0,1.147,2.59,3.829,3.829,0,0,0,2.59.851,5.476,5.476,0,0,0,2.664-.925,5.681,5.681,0,0,1,1.443-.74c.222,0,.444.3.592.518a2.953,2.953,0,0,0,2.4,1.147A3.882,3.882,0,0,0-9.361-1.11c0-.259-.111-.481-.259-.481-.111,0-.3.148-.481.259a2.126,2.126,0,0,1-.925.222c-1.443,0-1.776-1.517-1.7-3.219l.222-6.438c.111-2.775-1.184-4.329-3.848-4.329-2.7,0-6.882,2.627-6.882,4.551a.468.468,0,0,0,.518.518,3.982,3.982,0,0,0,2.109-.7c.3-.222.333-.666.37-1.258.074-1.147,1.332-1.665,2.368-1.665,2.294,0,2.738,1.85,2.7,3.219l-.037,1.7c0,.555-.074.888-.629,1.073Zm-.222,2.7c0-1.443,1.073-2,3.256-2.738a6.983,6.983,0,0,1,1.517-.37c.222,0,.37.074.37.481l-.074,2.183c-.037.777-.037,1.3-.481,1.739a4.184,4.184,0,0,1-2.257.925A2.23,2.23,0,0,1-20.461-3.367ZM-3.145-21.645c0-1.628.074-3.478.111-4.588a.407.407,0,0,0-.37-.222,26.254,26.254,0,0,1-4,1.554.563.563,0,0,0,0,.74l.37.222c1.11.666,1.147.888,1.147,3.071V-4.144c0,2.664-.037,3.034-1.406,3.219l-.851.111a.647.647,0,0,0,.074.925C-6.956.037-5.846,0-4.514,0c1.3,0,2.368.037,3.589.111A.647.647,0,0,0-.851-.814l-.888-.111C-3.071-1.11-3.145-1.48-3.145-4.144Z" transform="translate(276.456 336.724)"/></g></g><rect class="c" width="7" height="152" transform="translate(293 176)"/></g></g></svg>