<svg xmlns="http://www.w3.org/2000/svg" width="107.99" height="26" viewBox="0 0 107.99 26"><defs><style>.a,.c{fill:#fff;}.b{fill:#00799d;}.c{stroke:#f5674d;}.d,.f{fill:none;}.d{stroke:#fd846e;stroke-linecap:round;stroke-width:2px;}.e{stroke:none;}</style></defs><g transform="translate(-73.01 67)"><g transform="translate(155 -67)"><circle class="a" cx="13" cy="13" r="13"/><path class="b" d="M8,0A8,8,0,1,1,0,8,8,8,0,0,1,8,0Z" transform="translate(5.002 5.002)"/></g><g transform="translate(113 -67)"><circle class="a" cx="13" cy="13" r="13"/><g class="c" transform="translate(5 5)"><circle class="e" cx="8" cy="8" r="8"/><circle class="f" cx="8" cy="8" r="7.5"/></g></g><g transform="translate(73.01 -65)"><path class="a" d="M11,0A11,11,0,1,1,0,11,11,11,0,0,1,11,0Z"/><path class="d" d="M2.207,46.5l5.074,5.909,8.656-10.539" transform="translate(4.143 -37.011)"/></g></g></svg>