<svg xmlns="http://www.w3.org/2000/svg" width="343.926" height="25.92" viewBox="0 0 343.926 25.92"><defs><style>.a{fill:#fff;}</style></defs><g transform="translate(-276.296 -20.642)"><path class="a" d="M9.828.378a5.759,5.759,0,0,0,5.454-3.267h.054V0h2.781V-9.882H10.854v2.727h4.023c-.216,2.943-2.025,4.509-4.671,4.509C7.371-2.646,4.7-4.563,4.7-10.152c0-5.616,3-7.074,5.373-7.074s3.753,1,4.644,4l3.132-.837c-1.188-4.536-3.969-6.291-7.749-6.291-5.319,0-8.8,3.888-8.8,10.287C1.3-3.969,4.1.378,9.828.378ZM27.81.3A7.738,7.738,0,0,0,33.831-2.3L32.076-4.023a5.2,5.2,0,0,1-4.023,1.674,3.548,3.548,0,0,1-3.834-3.726h9.8v-.783c0-5.832-3.078-7.749-6.291-7.749-2.97,0-6.831,2-6.831,7.452C20.9-1.89,24.219.3,27.81.3ZM24.273-8.559c.324-2.43,1.809-3.348,3.429-3.348,2,0,3.078,1.161,3.267,3.348ZM40.014,0V-9.99A5.694,5.694,0,0,1,43.9-11.853c1.512,0,2.16.81,2.16,2.376V0h3.321V-10.422c0-2.835-1.62-4.185-4.239-4.185a6.767,6.767,0,0,0-5.13,2.565v-2.3H36.693V0ZM58.779.3A7.738,7.738,0,0,0,64.8-2.3L63.045-4.023a5.2,5.2,0,0,1-4.023,1.674,3.548,3.548,0,0,1-3.834-3.726h9.8v-.783c0-5.832-3.078-7.749-6.291-7.749-2.97,0-6.831,2-6.831,7.452C51.867-1.89,55.188.3,58.779.3ZM55.242-8.559c.324-2.43,1.809-3.348,3.429-3.348,2,0,3.078,1.161,3.267,3.348ZM73.2.189A16.38,16.38,0,0,0,75.627,0V-2.619A5.407,5.407,0,0,1,74.2-2.43c-1.647,0-2.106-.621-2.106-2.16v-7.1h3.7v-2.646h-3.7v-4.995H68.769v4.995H66.285v2.646h2.484v7.938C68.769-1.161,69.552.189,73.2.189Zm8.559-17.01V-19.71h-3.4v2.889ZM81.729,0V-14.337H78.381V0Zm9.477.3c3.456,0,5.157-1.917,6.183-4.212l-2.754-1C93.852-2.889,92.8-2.43,91.287-2.43c-2.187,0-3.429-1.674-3.429-4.725,0-3.429,1.593-4.671,3.483-4.671a3.134,3.134,0,0,1,3.186,2.4l2.808-1c-.864-2.214-2.376-4.185-5.94-4.185-3.186,0-6.885,1.971-6.885,7.452C84.51-1.917,87.885.3,91.206.3ZM113.859,0V-16.848h6.156V-19.98H104.328v3.132h6.156V0Zm11.07.3A7.738,7.738,0,0,0,130.95-2.3l-1.755-1.728a5.2,5.2,0,0,1-4.023,1.674,3.548,3.548,0,0,1-3.834-3.726h9.8v-.783c0-5.832-3.078-7.749-6.291-7.749-2.97,0-6.831,2-6.831,7.452C118.017-1.89,121.338.3,124.929.3Zm-3.537-8.856c.324-2.43,1.809-3.348,3.429-3.348,2,0,3.078,1.161,3.267,3.348ZM138.753.3c3.267,0,5.994-1.4,5.994-4.428,0-3.348-3-3.969-5.454-4.509-1.7-.378-3.132-.729-3.132-1.89,0-.81.594-1.458,2.43-1.458a7.2,7.2,0,0,1,4.05,1.566l1.593-2.16a8.412,8.412,0,0,0-5.886-2.025c-3.159,0-5.319,1.7-5.319,4.212,0,3.321,2.943,3.969,5.4,4.536,1.728.4,3.186.756,3.186,1.917,0,1.188-1.08,1.647-2.862,1.647A7.065,7.065,0,0,1,134.244-4l-1.809,2.025A9.078,9.078,0,0,0,138.753.3ZM152.658.189A16.38,16.38,0,0,0,155.088,0V-2.619a5.407,5.407,0,0,1-1.431.189c-1.647,0-2.106-.621-2.106-2.16v-7.1h3.7v-2.646h-3.7v-4.995H148.23v4.995h-2.484v2.646h2.484v7.938C148.23-1.161,149.013.189,152.658.189Zm8.559-17.01V-19.71h-3.4v2.889ZM161.19,0V-14.337h-3.348V0Zm6.939,0V-9.99a5.694,5.694,0,0,1,3.888-1.863c1.512,0,2.16.81,2.16,2.376V0H177.5V-10.422c0-2.835-1.62-4.185-4.239-4.185a6.767,6.767,0,0,0-5.13,2.565v-2.3h-3.321V0Zm18.144-6.669c-1.836,0-2.943-.945-2.943-2.7a2.589,2.589,0,0,1,2.916-2.754c1.89,0,2.916.972,2.916,2.754C189.162-7.614,188.082-6.669,186.273-6.669Zm-.081,12.231c4.428,0,7.4-1.431,7.4-4.374,0-2.511-1.674-3.645-5.913-3.915l-2.538-.162c-1.269-.108-1.647-.3-1.647-.864,0-.378.3-.675.729-.918a6.738,6.738,0,0,0,2,.3c3.726,0,5.967-2.106,5.967-5.1a3.65,3.65,0,0,0-.513-1.944,8.577,8.577,0,0,1,2.511-.378v-2.7a7.354,7.354,0,0,0-3.564,1.4,6.469,6.469,0,0,0-4.4-1.512c-3.753,0-6.021,2.187-6.021,5.13a4.719,4.719,0,0,0,2.268,4.131,3.351,3.351,0,0,0-1.944,2.619,1.879,1.879,0,0,0,1.107,1.755,3.218,3.218,0,0,0-2.349,3.024C179.28,4.131,181.251,5.562,186.192,5.562Zm.513-2.4c-2.916,0-4.374-.4-4.374-1.674a1.976,1.976,0,0,1,1.323-1.836,4.679,4.679,0,0,0,.864.081L187-.108c2.916.189,3.645.567,3.645,1.593S189.135,3.159,186.705,3.159ZM203.688,0h4.806c6.507,0,9.774-3.618,9.774-9.99,0-6.426-3.186-9.99-9.774-9.99h-4.806Zm1.35-1.242v-17.5h3.7c5.13,0,8.181,2.781,8.181,8.748,0,6.048-3.024,8.748-8.127,8.748ZM226.854.3a5.944,5.944,0,0,0,5.589-3.483L231.5-3.78c-1.08,1.89-2.349,2.943-4.563,2.943-2.619,0-4.752-2.322-4.752-6.183h10.341v-.189c0-4.455-2.268-7.263-5.616-7.263-3.024,0-6.021,2.457-6.021,7.371C220.887-2.43,223.668.3,226.854.3ZM222.21-8.1c.351-3.51,2.457-5.238,4.671-5.238,2.727,0,4.1,2.322,4.293,5.238ZM241.11.3c2.7,0,4.293-1.431,5.481-3.888L245.565-4.1c-1.08,2.16-2.214,3.267-4.374,3.267-2.592,0-4.725-2.295-4.725-6.264,0-4.617,2.592-6.237,4.779-6.237s3.348,1.215,4.212,3.24l1.107-.594c-.891-2.025-2.4-3.78-5.265-3.78-3.186,0-6.129,2.43-6.129,7.4C235.17-2.565,237.87.3,241.11.3Zm8.91-18.09h1.4V-19.44h-1.4ZM250.074,0h1.3V-14.175h-1.3Zm10.071.243c3.186,0,5.373-1.512,5.373-3.942,0-2.538-1.4-3.483-5.4-4.482-2.781-.675-3.591-1.323-3.591-2.808,0-1.188,1-2.349,3.348-2.349A5.265,5.265,0,0,1,264.06-11.5l.864-.891a6.53,6.53,0,0,0-5.022-2.079c-3.051,0-4.671,1.728-4.671,3.537,0,2.187,1.188,3.132,4.779,4.023,3.186.756,4.212,1.485,4.212,3.213s-1.377,2.808-4.05,2.808a5.194,5.194,0,0,1-4.4-2.214l-.945.729A6.228,6.228,0,0,0,260.145.243Zm8.991-18.036h1.4V-19.44h-1.4ZM269.19,0h1.3V-14.175h-1.3Zm11.151.3c3.483,0,6.237-2.862,6.237-7.371,0-4.563-2.754-7.4-6.237-7.4-3.51,0-6.237,2.835-6.237,7.4C274.1-2.565,276.858.3,280.341.3Zm0-1.134C277.1-.837,275.4-3.78,275.4-7.1c0-3.537,1.89-6.237,4.941-6.237,3.213,0,4.941,2.943,4.941,6.237C285.282-3.51,283.392-.837,280.341-.837ZM290.034,0h1.3V-10.638c1.755-1.674,3.4-2.7,5.373-2.7,2.16,0,3.1,1.053,3.1,3.213V0h1.3V-10.287c0-2.565-1.35-4.185-4.293-4.185a8.2,8.2,0,0,0-5.481,2.646v-2.349h-1.3Zm22.9-7.911L316.6-18.549h.054l3.7,10.638ZM308.8,0h1.377L312.5-6.7h8.289L323.109,0h1.431l-7.074-20.061h-1.593Zm18.927-17.793h1.4V-19.44h-1.4ZM327.78,0h1.3V-14.175h-1.3Zm10.908-.891c-2.484,0-4.671-1.917-4.671-6.21,0-4.347,2.133-6.237,4.617-6.237,1.836,0,3.267.918,4.86,2.538v7.371C341.9-1.809,340.6-.891,338.688-.891ZM338.661.243a6.544,6.544,0,0,0,4.833-2.376A7.883,7.883,0,0,0,343.818,0h1.4a9.1,9.1,0,0,1-.432-3.51V-19.98h-1.3V-12.1a6.621,6.621,0,0,0-4.779-2.376c-3.294,0-5.994,2.43-5.994,7.4S335.394.243,338.661.243Z" transform="translate(275 41)"/></g></svg>