<svg xmlns="http://www.w3.org/2000/svg" width="144.113" height="40.58" viewBox="0 0 144.113 40.58"><defs><style>.a,.b{fill:#fff;}.b{stroke:#fff;stroke-miterlimit:3.864;stroke-width:0.172px;}</style></defs><path class="a" d="M11.021,25.68h0a22.1,22.1,0,0,1-6.336-4.727,15.882,15.882,0,0,1-3.276-5.711C0,11,0,5.9,0,0L22.04,0V.008c0,5.917,0,11.027-1.392,15.236a15.8,15.8,0,0,1-3.273,5.71,22.086,22.086,0,0,1-6.354,4.727ZM21.23.871.785.873q0,.491,0,.982v0C.777,6.41.77,10.709,2.049,14.649a15.9,15.9,0,0,0,3.043,5.519,19,19,0,0,0,5.936,4.541,19,19,0,0,0,5.907-4.555,15.957,15.957,0,0,0,3.03-5.532c1.274-3.953,1.269-8.3,1.264-12.9Q21.23,1.3,21.23.871Z" transform="translate(0 0)"/><g transform="translate(10.46 2.127)"><path class="a" d="M92.219,81.884h1.352c.007-.435-.366-.767-.685-1.034A1.463,1.463,0,0,0,92.219,81.884Z" transform="translate(-92.219 -80.849)"/></g><path class="a" d="M88.565,86.028V84.7h6.013v1.362L91.545,85.1Z" transform="translate(-80.423 -80.135)"/><path class="a" d="M85.865,87.5h9.412l-4.719-1.461Z" transform="translate(-79.435 -80.625)"/><path class="a" d="M89.662,83.8h4.6A2.36,2.36,0,0,0,92.7,82.789H91.223A2.442,2.442,0,0,0,89.662,83.8Z" transform="translate(-80.824 -79.434)"/><path class="a" d="M87,101.789c.065-.029.061.065.061.151v1.807c0,.139-.1.185-.233.193l-.294.011v.151c.478,0,.654-.012.83-.012s.352.008.724.012v-.151l-.253-.011c-.131-.008-.233-.054-.233-.193v-1.313c0-.49.029-.841.041-1.037l-.049-.041a11.27,11.27,0,0,1-1.222.412.668.668,0,0,0,.057.286Z" transform="translate(-79.621 -86.242)"/><path class="a" d="M90.9,102.992c.233.1.426.229.426.514a.447.447,0,0,1-.438.466.52.52,0,0,1-.519-.543.651.651,0,0,1,.282-.547Zm-.012-.559c-.192-.082-.393-.193-.393-.437a.355.355,0,0,1,.393-.364.407.407,0,0,1,.421.445.55.55,0,0,1-.24.433Zm.053-1.013c-.556,0-.867.31-.867.759a.682.682,0,0,0,.409.628.756.756,0,0,0-.478.662.728.728,0,0,0,.822.714.9.9,0,0,0,.948-.9.723.723,0,0,0-.507-.7.689.689,0,0,0,.384-.559C91.653,101.6,91.319,101.421,90.942,101.421Z" transform="translate(-80.949 -86.266)"/><path class="a" d="M94.28,101.789c.065-.029.062.065.062.151v1.807c0,.139-.1.185-.233.193l-.295.011v.151c.479,0,.655-.012.83-.012s.351.008.723.012v-.151l-.253-.011c-.131-.008-.233-.054-.233-.193v-1.313c0-.49.029-.841.041-1.037l-.049-.041a11.27,11.27,0,0,1-1.222.412.66.66,0,0,0,.058.286Z" transform="translate(-82.282 -86.242)"/><path class="a" d="M97.678,101.789c.065-.029.062.065.062.151v1.807c0,.139-.1.185-.233.193l-.294.011v.151c.478,0,.654-.012.83-.012s.351.008.724.012v-.151l-.254-.011c-.131-.008-.233-.054-.233-.193v-1.313c0-.49.029-.841.041-1.037l-.049-.041a11.271,11.271,0,0,1-1.222.412.658.658,0,0,0,.057.286Z" transform="translate(-83.524 -86.242)"/><path class="b" d="M94.5,93.961c0-.156.108-.18.321-.225v-.212c-.306.006-.671.018-.978.018s-.613-.013-.919-.019v.256l.331.013c.2.006.357.037.357.23v.825a2.189,2.189,0,0,1-.794.156c-1.126,0-1.683-.944-1.683-2.023a1.548,1.548,0,0,1,1.589-1.724,1.84,1.84,0,0,1,1.314.432l.031.536h.244a8.26,8.26,0,0,1,.144-.954l-.038-.07a4.349,4.349,0,0,0-1.72-.293,2.238,2.238,0,1,0-.025,4.447,4.977,4.977,0,0,0,1.826-.375Z" transform="translate(-81.019 -82.411)"/><path class="b" d="M85.786,91.907a1.5,1.5,0,0,1,.044-.506c.031-.061.094-.094.256-.106l.232-.019v-.231c-.313.006-.538.019-.726.019s-.413-.013-.719-.019c-.094.219-.194.475-.306.706l-1.145,2.36-.989-2.061c-.131-.28-.357-.749-.469-1.005-.251.006-.5.019-.751.019s-.5-.013-.751-.019v.231l.232.019c.162.012.225.044.256.106a1.5,1.5,0,0,1,.044.506v2.55a1.491,1.491,0,0,1-.044.5c-.031.063-.094.094-.256.106l-.232.018v.231c.238-.006.482-.018.72-.018s.475.012.713.018v-.231l-.232-.018c-.162-.012-.225-.043-.256-.106a1.491,1.491,0,0,1-.044-.5V91.876h.012L82.8,94.842c.081.175.162.343.225.519h.213c.1-.25.244-.556.375-.825l1.276-2.655H84.9v2.575a1.491,1.491,0,0,1-.044.5c-.025.051-.094.076-.257.088l-.231.018v.25c.256-.006.6-.018.976-.018s.714.012.97.018v-.25l-.232-.018c-.162-.012-.232-.037-.256-.088a1.491,1.491,0,0,1-.044-.5Z" transform="translate(-77.46 -82.461)"/><path class="b" d="M99.58,91.908a1.491,1.491,0,0,1,.044-.507c.025-.05.095-.074.259-.087l.234-.019v-.25c-.259.006-.607.019-.979.019s-.727-.013-.986-.019v.25l.234.019c.164.013.234.037.259.087a1.491,1.491,0,0,1,.044.507v2.55a1.475,1.475,0,0,1-.044.506c-.025.051-.095.076-.259.087l-.234.018v.251c.259-.006.607-.018.986-.018s.72.012.979.018v-.251l-.234-.018c-.164-.011-.234-.037-.259-.087a1.475,1.475,0,0,1-.044-.506V93.27c.095-.006.215-.012.512-.012h.923c.3,0,.417.006.511.012v1.187a1.5,1.5,0,0,1-.044.506c-.025.051-.1.076-.259.087l-.234.018v.251c.259-.006.607-.018.986-.018s.72.012.979.018v-.251l-.234-.018c-.164-.011-.233-.037-.259-.087a1.475,1.475,0,0,1-.044-.506v-2.55a1.491,1.491,0,0,1,.044-.507c.025-.05.1-.074.259-.087l.234-.019v-.25c-.259.006-.607.019-.979.019s-.727-.013-.986-.019v.25l.234.019c.164.013.234.037.259.087a1.513,1.513,0,0,1,.044.507v.987c-.095.007-.215.013-.511.013h-.923c-.3,0-.417-.006-.512-.013Z" transform="translate(-83.928 -82.461)"/><g transform="translate(27.152 0.697)"><path class="a" d="M124.228,100.753a.938.938,0,0,1-.048.4c-.059.176-.615.342-1.368.342a3.03,3.03,0,0,1-3.145-3.335,2.667,2.667,0,0,1,2.822-2.954,4.2,4.2,0,0,1,1.368.175c.459.166.81.322.81.78v.517h.3a6.078,6.078,0,0,1,.2-1.482,7.706,7.706,0,0,0-2.421-.4c-2.354,0-4.122,1.384-4.122,3.53,0,2.446,1.758,3.578,3.936,3.578a10.937,10.937,0,0,0,2.568-.5V99.769c0-.282,0-.321.108-.361l.284-.1-.039-.244c-.4.01-.8.019-1.2.019s-.791-.009-1.192-.019v.293l.811.067c.254.021.332.118.332.342Z" transform="translate(-118.565 -84.534)"/><path class="a" d="M131.578,100.635a1.738,1.738,0,0,1-.088.731c-.059.1-.176.126-.41.145l-.351.029v.293c.351-.01.674-.029,1.045-.029.605,0,1.377.019,2.129.029.723.01,1.495-.019,1.924-.029a8.319,8.319,0,0,1,.157-1.6h-.343c-.068.585-.2,1.013-.342,1.091a8.93,8.93,0,0,1-1.972.127,3.381,3.381,0,0,1-.82-.079V98.617c.3-.03.664-.03,1.132-.03a2.458,2.458,0,0,1,1.035.117c.049.029.069.118.079.244l.048.575h.293c-.01-.351-.029-.721-.029-1.082s.02-.731.029-1.131H134.8l-.048.508c-.01.127-.03.214-.079.253a2.7,2.7,0,0,1-1.035.108c-.469,0-.82-.009-1.132-.029v-2.6a3.379,3.379,0,0,1,.82-.078,6.046,6.046,0,0,1,1.914.2c.078.029.088.137.088.263v.633h.343a6.518,6.518,0,0,1,.156-1.481c-.381-.02-.82-.03-1.26-.03-.557,0-1.455.03-2.3.03-.557,0-1.113-.02-1.651-.03v.293l.469.029c.235.011.351.049.41.148a1.719,1.719,0,0,1,.088.73Z" transform="translate(-122.948 -84.63)"/><path class="a" d="M141.4,100.635a1.724,1.724,0,0,1-.088.731c-.058.1-.176.126-.41.145l-.429.029v.293c.391-.01.782-.029,1.133-.029.391,0,.742.019,1.172.029v-.293l-.43-.029c-.235-.019-.351-.048-.41-.145a1.727,1.727,0,0,1-.088-.731v-4.5h.019l4.6,5.7.879.156c-.01-.118-.029-.244-.029-.362V96.257a1.708,1.708,0,0,1,.088-.73c.058-.1.176-.127.41-.148l.43-.029v-.293c-.43.01-.782.03-1.172.03-.351,0-.742-.02-1.132-.03v.293l.429.029c.235.021.351.049.41.148a1.719,1.719,0,0,1,.088.73v4.553h-.029l-4.668-5.752c-.176.01-.351.03-.528.03-.351,0-.742-.02-1.172-.03v.293l.429.029c.235.021.352.049.41.148a1.705,1.705,0,0,1,.088.73Z" transform="translate(-126.552 -84.63)"/><path class="a" d="M154.864,100.635a1.724,1.724,0,0,1-.088.731c-.058.1-.176.126-.41.145l-.352.029v.293c.352-.01.674-.029,1.045-.029.605,0,1.377.019,2.128.029.723.01,1.495-.019,1.925-.029a8.372,8.372,0,0,1,.156-1.6h-.342c-.068.585-.2,1.013-.342,1.091a8.937,8.937,0,0,1-1.972.127,3.386,3.386,0,0,1-.821-.079V98.617c.3-.03.664-.03,1.133-.03a2.46,2.46,0,0,1,1.035.117c.049.029.069.118.078.244l.049.575h.293c-.01-.351-.03-.721-.03-1.082s.02-.731.03-1.131h-.293l-.049.508c-.01.127-.029.214-.078.253a2.7,2.7,0,0,1-1.035.108c-.469,0-.82-.009-1.133-.029v-2.6a3.384,3.384,0,0,1,.821-.078,6.046,6.046,0,0,1,1.914.2c.078.029.088.137.088.263v.633h.342a6.482,6.482,0,0,1,.157-1.481c-.381-.02-.821-.03-1.26-.03-.557,0-1.455.03-2.305.03-.556,0-1.113-.02-1.65-.03v.293l.469.029c.234.011.351.049.41.148a1.705,1.705,0,0,1,.088.73Z" transform="translate(-131.462 -84.63)"/><path class="a" d="M165.814,95.545a3.8,3.8,0,0,1,1-.117c.762,0,1.543.293,1.543,1.346a1.442,1.442,0,0,1-1.269,1.365,3.763,3.763,0,0,1-.86.039l-.058.117c.166.2.351.389.508.6l1.8,2.408c.127.175.273.341.4.526.225-.01.439-.029.664-.029s.449.019.7.029v-.293a.748.748,0,0,1-.6-.253L167.425,98.4a2.093,2.093,0,0,0,1.9-1.882c0-.7-.41-1.491-1.973-1.462-.566.01-1.133.03-1.709.03s-1.142-.02-1.66-.03v.293l.4.028c.234.021.351.049.41.148a1.709,1.709,0,0,1,.088.73v4.378a1.727,1.727,0,0,1-.088.731c-.058.1-.176.135-.41.145l-.469.029v.293c.508-.019.967-.029,1.446-.029.449,0,.908.01,1.416.029v-.293l-.469-.029c-.234-.01-.351-.048-.41-.145a1.727,1.727,0,0,1-.088-.731Z" transform="translate(-135.126 -84.63)"/><path class="a" d="M177.591,94.936h-.313c-.264.7-.6,1.423-.9,2.106l-1.739,3.948a.7.7,0,0,1-.527.478l-.362.029v.293c.372-.01.742-.029,1.123-.029.284,0,.655.019,1.123.029V101.5l-.362-.029c-.3-.029-.468-.068-.468-.273a5.657,5.657,0,0,1,.341-1.014l.274-.653H178.6l.448,1.121a2.282,2.282,0,0,1,.206.624c0,.118-.2.185-.4.2l-.46.029v.293c.528-.01.957-.029,1.3-.029.44,0,.87.019,1.3.029V101.5l-.331-.029c-.176-.019-.284-.145-.392-.331-.117-.206-.224-.469-.312-.664Zm-1.641,4.2,1.24-2.9,1.23,2.9Z" transform="translate(-138.721 -84.585)"/><path class="a" d="M187.9,96.257a1.705,1.705,0,0,1,.088-.73c.06-.1.176-.137.41-.148l.469-.029v-.293c-.507.02-.967.03-1.417.03-.478,0-.936-.01-1.444-.03v.293l.469.029c.234.011.351.049.409.148a1.7,1.7,0,0,1,.088.73v4.621a.619.619,0,0,1-.244.574l-.3.156v.224c.254-.01.5-.029.83-.029.6,0,1.248.019,2.128.029.723.01,1.494-.019,1.924-.029.078-.488.147-1.141.206-1.677H191.2l-.117.487a1.7,1.7,0,0,1-.2.624,7.14,7.14,0,0,1-2.158.186,3.378,3.378,0,0,1-.82-.079Z" transform="translate(-143.202 -84.63)"/><path class="a" d="M205.892,96.257a1.722,1.722,0,0,1,.087-.73c.06-.1.176-.137.41-.148l.468-.029v-.293c-.507.02-.966.03-1.415.03-.479,0-.939-.01-1.446-.03v.293l.468.029c.235.011.351.049.41.148a1.716,1.716,0,0,1,.088.73v1.734c-.118.011-.382.022-.811.022h-2.284c-.431,0-.694-.011-.812-.022V96.257a1.716,1.716,0,0,1,.088-.73c.058-.1.176-.137.41-.148l.469-.029v-.293c-.509.02-.968.03-1.417.03-.48,0-.938-.01-1.446-.03v.293l.468.029c.234.011.352.049.41.148a1.719,1.719,0,0,1,.088.73v4.378a1.737,1.737,0,0,1-.088.731c-.058.1-.176.135-.41.145l-.468.029v.293c.508-.019.966-.029,1.446-.029.449,0,.907.01,1.417.029v-.293l-.469-.029c-.235-.01-.352-.048-.41-.145a1.734,1.734,0,0,1-.088-.731V98.461c.118-.011.381-.021.812-.021h2.284c.429,0,.693.01.811.021v2.174a1.734,1.734,0,0,1-.088.731c-.06.1-.176.135-.41.145l-.468.029v.293c.507-.019.967-.029,1.446-.029.45,0,.908.01,1.415.029v-.293l-.468-.029c-.235-.01-.351-.048-.41-.145a1.741,1.741,0,0,1-.087-.731Z" transform="translate(-148.012 -84.63)"/><path class="a" d="M215.443,101.9a3.737,3.737,0,0,0,3.779-3.773c0-2.165-1.484-3.335-3.573-3.335a3.451,3.451,0,0,0-3.672,3.559A3.337,3.337,0,0,0,215.443,101.9Zm.049-6.7c1.817,0,2.685,1.3,2.685,3.227,0,1.793-.79,3.061-2.422,3.061-1.933,0-2.735-1.794-2.735-3.5C213.021,96.4,213.793,95.206,215.493,95.206Z" transform="translate(-152.698 -84.534)"/><path class="a" d="M228.969,96.58a6.832,6.832,0,0,1,.137-1.374,4.576,4.576,0,0,0-1.768-.41,2.3,2.3,0,0,0-2.5,2.2c0,1.015.606,1.493,2.14,1.667.995.117,1.719.382,1.719,1.307a1.6,1.6,0,0,1-1.75,1.5c-.771,0-1.542-.37-1.591-.779l-.078-.654h-.313a8.667,8.667,0,0,1-.068,1.492,4.2,4.2,0,0,0,1.67.371c1.456,0,2.95-.8,2.95-2.467,0-1.111-.87-1.453-2.248-1.6-1.219-.136-1.611-.547-1.611-1.21a1.39,1.39,0,0,1,1.444-1.423,2.173,2.173,0,0,1,1.066.234c.36.225.4.322.429.585l.059.555Z" transform="translate(-157.4 -84.534)"/><path class="a" d="M235.54,95.545a3.791,3.791,0,0,1,.995-.117c.968,0,1.582.439,1.582,1.453a1.4,1.4,0,0,1-1.406,1.453,2.051,2.051,0,0,1-.644-.1l.1.352a2.959,2.959,0,0,0,.586.059,2.194,2.194,0,0,0,2.343-2.1c0-1.1-1.074-1.511-2.02-1.492-.528.01-1.094.03-1.66.03s-1.114-.02-1.758-.03v.293l.439.028c.244.021.353.069.421.167a1.657,1.657,0,0,1,.1.712v4.378a1.724,1.724,0,0,1-.088.731c-.06.1-.177.135-.411.145l-.469.029v.293c.508-.019.968-.029,1.446-.029.45,0,.907.01,1.416.029v-.293l-.469-.029c-.234-.01-.352-.048-.41-.145a1.744,1.744,0,0,1-.086-.731Z" transform="translate(-160.62 -84.63)"/><path class="a" d="M245.056,96.257a1.7,1.7,0,0,1,.088-.73c.058-.1.176-.137.41-.148l.468-.029v-.293c-.507.02-.967.03-1.417.03-.478,0-.936-.01-1.444-.03v.293l.468.029c.235.011.352.049.41.148a1.7,1.7,0,0,1,.088.73v4.378a1.716,1.716,0,0,1-.088.731c-.058.1-.175.135-.41.145l-.468.029v.293c.508-.019.966-.029,1.444-.029.45,0,.91.01,1.417.029v-.293l-.468-.029c-.235-.01-.352-.048-.41-.145a1.713,1.713,0,0,1-.088-.731Z" transform="translate(-164.1 -84.63)"/><path class="a" d="M250.981,100.635a1.724,1.724,0,0,1-.088.731c-.06.1-.176.135-.41.145l-.469.029v.293c.507-.019.967-.029,1.445-.029.45,0,.908.01,1.416.029v-.293l-.469-.029c-.234-.01-.351-.048-.409-.145a1.716,1.716,0,0,1-.088-.731V96.511a9.637,9.637,0,0,1,.038-.975h1.514c.292,0,.37.087.391.322l.039.77h.3c0-.526.02-1.063.069-1.569-.7,0-1.406.03-2.109.03h-1.416c-.7,0-1.406-.03-2.11-.03.049.507.069,1.044.069,1.569h.3l.038-.77c.022-.234.1-.322.391-.322h1.515c.029.292.039.6.039.975Z" transform="translate(-166.098 -84.63)"/><path class="a" d="M260.458,94.936h-.312c-.263.7-.6,1.423-.9,2.106l-1.738,3.948a.7.7,0,0,1-.528.478l-.362.029v.293c.37-.01.742-.029,1.124-.029.282,0,.654.019,1.122.029V101.5l-.362-.029c-.3-.029-.469-.068-.469-.273a5.617,5.617,0,0,1,.343-1.014l.272-.653h2.813l.45,1.121a2.272,2.272,0,0,1,.2.624c0,.118-.195.185-.4.2l-.458.029v.293c.527-.01.957-.029,1.3-.029.44,0,.87.019,1.3.029V101.5l-.332-.029c-.175-.019-.282-.145-.39-.331-.117-.206-.225-.469-.313-.664Zm-1.641,4.2,1.24-2.9,1.231,2.9Z" transform="translate(-169.021 -84.585)"/><path class="a" d="M270.373,96.257a1.719,1.719,0,0,1,.088-.73c.06-.1.176-.137.41-.148l.468-.029v-.293c-.507.02-.966.03-1.416.03-.478,0-.937-.01-1.445-.03v.293l.47.029c.234.011.35.049.409.148a1.685,1.685,0,0,1,.088.73v4.621a.619.619,0,0,1-.244.574l-.3.156v.224c.254-.01.5-.029.83-.029.6,0,1.25.019,2.129.029.723.01,1.494-.019,1.924-.029.078-.488.146-1.141.206-1.677h-.313l-.118.487a1.714,1.714,0,0,1-.2.624,7.14,7.14,0,0,1-2.158.186,3.376,3.376,0,0,1-.82-.079Z" transform="translate(-173.356 -84.63)"/><path class="a" d="M126.451,80.053a1.718,1.718,0,0,1,.088-.731c.059-.1.176-.127.41-.147l.41-.03v-.292c-.283.01-.6.029-.908.029s-.615-.02-.928-.029l-2.558,5.421-2.578-5.421c-.3.01-.615.029-.928.029s-.625-.02-.927-.029v.292l.429.03c.235.02.352.049.41.147a1.728,1.728,0,0,1,.088.731v4.377a1.734,1.734,0,0,1-.088.731c-.058.1-.176.127-.41.146l-.429.029v.293c.39-.011.782-.029,1.133-.029.391,0,.742.018,1.172.029v-.293l-.429-.029c-.235-.019-.351-.048-.41-.146a1.72,1.72,0,0,1-.088-.731V80h.02l2.706,5.722h.195c.176-.408.342-.839.528-1.238l1.738-3.685c.128-.263.264-.536.41-.8h.02v4.426a1.734,1.734,0,0,1-.088.731c-.059.1-.176.127-.41.146l-.332.029v.293c.371-.019.83-.029,1.308-.029.45,0,.908.01,1.417.029v-.293l-.469-.029c-.234-.011-.351-.048-.41-.146a1.723,1.723,0,0,1-.088-.731Z" transform="translate(-118.531 -78.688)"/><path class="a" d="M136.379,78.731h-.312c-.264.7-.6,1.423-.9,2.106l-1.739,3.947a.7.7,0,0,1-.527.478l-.362.029v.293c.371-.011.742-.029,1.123-.029.284,0,.655.018,1.123.029v-.293l-.361-.029c-.3-.029-.469-.068-.469-.272a5.585,5.585,0,0,1,.342-1.015l.273-.653h2.813l.449,1.121a2.263,2.263,0,0,1,.2.624c0,.117-.2.184-.4.2l-.459.029v.293c.528-.011.957-.029,1.3-.029.44,0,.87.018,1.3.029v-.293l-.332-.029c-.176-.019-.284-.146-.391-.332-.117-.2-.225-.468-.313-.661Zm-1.641,4.2,1.24-2.906,1.23,2.906Z" transform="translate(-123.653 -78.643)"/><path class="a" d="M148.581,80.377A6.849,6.849,0,0,1,148.718,79a4.579,4.579,0,0,0-1.768-.408,2.3,2.3,0,0,0-2.5,2.2c0,1.014.605,1.492,2.138,1.666,1,.117,1.719.381,1.719,1.307a1.6,1.6,0,0,1-1.748,1.5c-.771,0-1.543-.37-1.592-.78l-.078-.654h-.312a8.734,8.734,0,0,1-.069,1.492,4.186,4.186,0,0,0,1.67.37c1.455,0,2.949-.8,2.949-2.467,0-1.111-.869-1.452-2.246-1.6-1.221-.137-1.611-.547-1.611-1.21A1.39,1.39,0,0,1,146.716,79a2.182,2.182,0,0,1,1.064.235c.361.224.4.322.429.585l.058.556Z" transform="translate(-128.008 -78.592)"/><path class="a" d="M157.337,80.377A6.847,6.847,0,0,1,157.473,79a4.576,4.576,0,0,0-1.768-.408,2.3,2.3,0,0,0-2.5,2.2c0,1.014.605,1.492,2.138,1.666,1,.117,1.719.381,1.719,1.307a1.6,1.6,0,0,1-1.748,1.5c-.771,0-1.543-.37-1.592-.78l-.078-.654h-.312a8.734,8.734,0,0,1-.069,1.492,4.186,4.186,0,0,0,1.67.37c1.455,0,2.949-.8,2.949-2.467,0-1.111-.87-1.452-2.246-1.6-1.221-.137-1.611-.547-1.611-1.21A1.391,1.391,0,0,1,155.471,79a2.184,2.184,0,0,1,1.064.235c.362.224.4.322.429.585l.059.556Z" transform="translate(-131.209 -78.592)"/><path class="a" d="M164.485,78.731h-.312c-.264.7-.6,1.423-.9,2.106l-1.738,3.947a.7.7,0,0,1-.527.478l-.362.029v.293c.371-.011.742-.029,1.123-.029.284,0,.655.018,1.123.029v-.293l-.362-.029c-.3-.029-.469-.068-.469-.272a5.584,5.584,0,0,1,.342-1.015l.273-.653h2.813l.449,1.121a2.263,2.263,0,0,1,.2.624c0,.117-.2.184-.4.2l-.459.029v.293c.527-.011.957-.029,1.3-.029.44,0,.869.018,1.3.029v-.293l-.332-.029c-.176-.019-.284-.146-.391-.332-.117-.2-.225-.468-.313-.661Zm-1.64,4.2,1.24-2.906,1.23,2.906Z" transform="translate(-133.93 -78.643)"/><path class="a" d="M178.367,84.686l-.088-.1a3.719,3.719,0,0,1-1.982.584,3,3,0,0,1-3.213-3.178,2.731,2.731,0,0,1,2.8-2.994,3.671,3.671,0,0,1,1.094.166c.449.167.839.332.839.605v.7h.3a7.228,7.228,0,0,1,.186-1.483,7.211,7.211,0,0,0-2.256-.4,4.413,4.413,0,0,0-2.822.935,3.256,3.256,0,0,0-1.191,2.623c0,2.213,1.582,3.549,3.926,3.549a4.787,4.787,0,0,0,2.128-.527Z" transform="translate(-138.095 -78.592)"/><path class="a" d="M189.914,80.053a1.721,1.721,0,0,1,.087-.731c.059-.1.176-.137.41-.147l.469-.03v-.292c-.507.02-.966.029-1.416.029-.478,0-.938-.009-1.444-.029v.292l.468.03c.234.009.351.049.41.147a1.714,1.714,0,0,1,.088.731v1.735c-.118.01-.382.021-.81.021H185.89c-.43,0-.693-.011-.81-.021V80.053a1.728,1.728,0,0,1,.088-.731c.058-.1.176-.137.41-.147l.468-.03v-.292c-.508.02-.966.029-1.415.029-.478,0-.938-.009-1.446-.029v.292l.469.03c.234.009.351.049.41.147a1.708,1.708,0,0,1,.089.731v4.377a1.713,1.713,0,0,1-.089.731c-.058.1-.176.135-.41.146l-.469.029v.293c.508-.019.968-.029,1.446-.029.449,0,.907.01,1.415.029v-.293l-.468-.029c-.234-.011-.352-.048-.41-.146a1.734,1.734,0,0,1-.088-.731V82.257c.117-.011.38-.022.81-.022h2.286c.428,0,.692.011.81.022v2.173a1.72,1.72,0,0,1-.088.731c-.059.1-.176.135-.41.146l-.468.029v.293c.506-.019.966-.029,1.444-.029.45,0,.908.01,1.416.029v-.293l-.469-.029c-.234-.011-.351-.048-.41-.146a1.727,1.727,0,0,1-.087-.731Z" transform="translate(-142.17 -78.688)"/><path class="a" d="M197.364,83.514c0,1.783.976,2.282,2.636,2.282,1.972,0,2.763-.838,2.763-2.925V80.053a1.722,1.722,0,0,1,.089-.731c.058-.1.176-.127.41-.147l.428-.03v-.292c-.428.01-.78.029-1.172.029-.351,0-.741-.02-1.132-.029v.292l.429.03c.234.02.352.049.412.147a1.753,1.753,0,0,1,.087.731v3.12a1.777,1.777,0,0,1-2.012,2.018c-1.289,0-2.011-.4-2.011-1.785V80.053a1.729,1.729,0,0,1,.088-.731c.058-.1.176-.137.41-.147l.468-.03v-.292c-.508.02-.966.029-1.416.029-.478,0-.937-.009-1.446-.029v.292l.47.03c.234.009.351.049.411.147a1.742,1.742,0,0,1,.087.731Z" transform="translate(-147.001 -78.688)"/><path class="a" d="M213.043,80.377A6.892,6.892,0,0,1,213.179,79a4.576,4.576,0,0,0-1.768-.408,2.3,2.3,0,0,0-2.5,2.2c0,1.014.6,1.492,2.138,1.666,1,.117,1.72.381,1.72,1.307a1.6,1.6,0,0,1-1.75,1.5c-.771,0-1.542-.37-1.591-.78l-.079-.654h-.312a8.667,8.667,0,0,1-.068,1.492,4.186,4.186,0,0,0,1.67.37c1.455,0,2.949-.8,2.949-2.467,0-1.111-.868-1.452-2.246-1.6-1.221-.137-1.611-.547-1.611-1.21A1.391,1.391,0,0,1,211.177,79a2.187,2.187,0,0,1,1.066.235c.36.224.4.322.429.585l.06.556Z" transform="translate(-151.577 -78.592)"/><path class="a" d="M218.405,84.431a1.72,1.72,0,0,1-.088.731c-.058.1-.176.127-.411.146l-.351.029v.293c.351-.011.674-.029,1.044-.029.606,0,1.378.018,2.129.029.724.01,1.494-.019,1.925-.029a8.384,8.384,0,0,1,.156-1.6h-.343c-.067.585-.194,1.014-.341,1.092a9,9,0,0,1-1.972.126,3.344,3.344,0,0,1-.82-.079V82.413c.3-.029.663-.029,1.132-.029a2.447,2.447,0,0,1,1.035.116c.049.029.068.117.078.245l.049.574h.292c-.01-.351-.03-.721-.03-1.083s.02-.73.03-1.13h-.292l-.049.507c-.01.127-.029.214-.078.253a2.705,2.705,0,0,1-1.035.108c-.469,0-.82-.009-1.132-.03v-2.6a3.407,3.407,0,0,1,.82-.079,6.035,6.035,0,0,1,1.913.206c.078.029.088.137.088.263v.633h.342a6.418,6.418,0,0,1,.157-1.482c-.381-.02-.822-.029-1.26-.029-.556,0-1.456.029-2.306.029-.556,0-1.113-.02-1.651-.029v.292l.469.03c.235.009.353.049.411.147a1.714,1.714,0,0,1,.088.731Z" transform="translate(-154.694 -78.688)"/><path class="a" d="M229.353,84.431a1.7,1.7,0,0,1-.088.731c-.057.1-.174.135-.409.146l-.47.029v.293c.509-.019.967-.029,1.446-.029.448,0,.908.01,1.416.029v-.293l-.468-.029c-.234-.011-.352-.048-.412-.146a1.734,1.734,0,0,1-.088-.731V80.307a9.609,9.609,0,0,1,.039-.975h1.514c.292,0,.372.087.39.322l.039.77h.3c0-.526.02-1.063.068-1.569-.7,0-1.406.029-2.11.029h-1.417c-.7,0-1.406-.029-2.109-.029.048.507.068,1.044.068,1.569h.3l.039-.77c.019-.235.1-.322.391-.322h1.512a9.623,9.623,0,0,1,.039.975Z" transform="translate(-158.19 -78.688)"/><path class="a" d="M239.162,84.431a1.737,1.737,0,0,1-.087.731c-.058.1-.176.135-.41.146l-.469.029v.293c.509-.019.967-.029,1.446-.029.449,0,.908.01,1.417.029v-.293l-.468-.029c-.235-.011-.352-.048-.412-.146a1.73,1.73,0,0,1-.088-.731V80.307a9.6,9.6,0,0,1,.04-.975h1.514c.294,0,.372.087.39.322l.038.77h.3c0-.526.02-1.063.068-1.569-.7,0-1.406.029-2.11.029h-1.415c-.7,0-1.408-.029-2.11-.029.049.507.068,1.044.068,1.569h.3l.04-.77c.018-.235.1-.322.39-.322h1.513a9.623,9.623,0,0,1,.039.975Z" transform="translate(-161.777 -78.688)"/><path class="a" d="M250.842,80.377A6.843,6.843,0,0,1,250.978,79a4.569,4.569,0,0,0-1.767-.408,2.3,2.3,0,0,0-2.5,2.2c0,1.014.606,1.492,2.138,1.666,1,.117,1.719.381,1.719,1.307a1.6,1.6,0,0,1-1.748,1.5c-.772,0-1.543-.37-1.591-.78l-.078-.654h-.313a8.665,8.665,0,0,1-.068,1.492,4.18,4.18,0,0,0,1.67.37c1.456,0,2.95-.8,2.95-2.467,0-1.111-.87-1.452-2.248-1.6-1.219-.137-1.611-.547-1.611-1.21A1.39,1.39,0,0,1,248.976,79a2.187,2.187,0,0,1,1.066.235c.36.224.4.322.429.585l.059.556Z" transform="translate(-165.397 -78.592)"/></g><g transform="translate(10.445 2.129)"><path class="a" d="M92.195,81.887h1.352c.008-.437-.365-.768-.684-1.035A1.463,1.463,0,0,0,92.195,81.887Z" transform="translate(-92.195 -80.852)"/></g><path class="a" d="M88.542,86.03V84.7h6.013v1.362L91.522,85.1Z" transform="translate(-80.414 -80.136)"/><path class="a" d="M85.842,87.5h9.411l-4.719-1.46Z" transform="translate(-79.427 -80.626)"/><path class="a" d="M89.639,83.806h4.6a2.36,2.36,0,0,0-1.561-1.016H91.2A2.444,2.444,0,0,0,89.639,83.806Z" transform="translate(-80.815 -79.434)"/><g transform="translate(23.672 22.838)"><rect class="a" width="120.441" height="0.38"/></g><g transform="translate(6.752 15.114)"><path class="a" d="M87,101.789c.066-.028.062.065.062.151v1.807c0,.14-.1.184-.233.193l-.295.012v.151c.479,0,.655-.013.83-.013s.352.009.724.013v-.151l-.254-.012c-.13-.009-.233-.053-.233-.193v-1.313c0-.491.029-.84.041-1.035l-.049-.042a11.219,11.219,0,0,1-1.222.412.663.663,0,0,0,.056.286Z" transform="translate(-86.374 -101.356)"/><path class="a" d="M90.9,102.992c.233.1.425.229.425.515a.446.446,0,0,1-.437.465.52.52,0,0,1-.52-.543.651.651,0,0,1,.282-.547Zm-.012-.557c-.193-.082-.393-.192-.393-.436a.355.355,0,0,1,.393-.364.407.407,0,0,1,.42.445.55.55,0,0,1-.24.433Zm.052-1.011c-.555,0-.866.309-.866.758a.68.68,0,0,0,.409.628.756.756,0,0,0-.479.662.729.729,0,0,0,.822.713.9.9,0,0,0,.948-.9.726.726,0,0,0-.507-.7.686.686,0,0,0,.384-.557C91.653,101.605,91.319,101.423,90.942,101.423Z" transform="translate(-87.702 -101.381)"/><path class="a" d="M94.28,101.789c.065-.028.061.065.061.151v1.807c0,.14-.1.184-.233.193l-.294.012v.151c.478,0,.653-.013.83-.013s.351.009.723.013v-.151l-.253-.012c-.131-.009-.233-.053-.233-.193v-1.313c0-.491.028-.84.04-1.035l-.049-.042a11.091,11.091,0,0,1-1.222.412.676.676,0,0,0,.058.286Z" transform="translate(-89.034 -101.356)"/><path class="a" d="M97.678,101.789c.065-.028.061.065.061.151v1.807c0,.14-.1.184-.233.193l-.294.012v.151c.478,0,.653-.013.83-.013s.351.009.723.013v-.151l-.254-.012c-.131-.009-.233-.053-.233-.193v-1.313c0-.491.029-.84.041-1.035l-.049-.042a11.092,11.092,0,0,1-1.222.412.674.674,0,0,0,.057.286Z" transform="translate(-90.276 -101.356)"/></g><path class="a" d="M90.909,93.446c-.223.006-.452.011-.657.011s-.411-.005-.612-.011l-.306-.008h-.056V93.8l.053,0,.331.013c.23.006.3.049.3.177v.784a2.121,2.121,0,0,1-.741.142c-1.2,0-1.628-1.061-1.628-1.97a1.49,1.49,0,0,1,1.535-1.669,1.776,1.776,0,0,1,1.261.4l.03.514,0,.051h.344l.006-.048.008-.069a7.649,7.649,0,0,1,.134-.878l.006-.021-.01-.019-.037-.069-.009-.018-.018-.007a4.443,4.443,0,0,0-1.741-.3,2.289,2.289,0,0,0-2.558,2.21,2.238,2.238,0,0,0,.723,1.746,2.7,2.7,0,0,0,1.81.6A5.033,5.033,0,0,0,90.929,95l.034-.014V93.93c0-.1.049-.123.277-.172l.044-.009v-.312h-.056Zm-4.98-2.527c-.14,0-.261.008-.369.008s-.227,0-.369-.008l-.35-.01H84.8l-.014.034-.082.2c-.07.168-.143.342-.222.505L83.39,93.9l-.94-1.959-.127-.269c-.122-.258-.261-.55-.342-.735l-.015-.034H81.93l-.223.007c-.173.006-.351.011-.527.011s-.353-.006-.526-.011l-.223-.007-.056,0v.338l.05,0,.232.018c.167.014.2.046.213.077a1.691,1.691,0,0,1,.037.481v2.55a1.658,1.658,0,0,1-.038.481c-.016.032-.045.064-.211.076l-.233.02-.049,0v.337l.056,0,.237-.008c.159-.006.323-.011.481-.011s.32.005.475.011l.237.008.056,0v-.337l-.05,0-.232-.02c-.167-.012-.2-.044-.212-.076a1.617,1.617,0,0,1-.038-.481V92.007l1.335,2.777.036.079c.069.149.134.289.187.436l.013.035h.287l.014-.034c.084-.209.21-.486.374-.823l1.185-2.464v2.361a1.667,1.667,0,0,1-.037.481c-.015.029-.082.048-.213.059l-.23.017-.05,0v.357h.055l.184-.005c.223-.006.5-.013.791-.013s.561.007.783.013l.185.005h.056v-.357l-.051,0-.232-.017c-.129-.011-.2-.03-.211-.059a1.617,1.617,0,0,1-.038-.481v-2.55a1.621,1.621,0,0,1,.038-.481c.015-.032.045-.063.212-.077l.232-.018.05,0v-.338h-.056Zm10.082.426c.015-.03.082-.048.214-.059l.234-.018.05,0v-.356h-.056l-.137,0c-.237.007-.531.015-.841.015s-.611-.008-.848-.015l-.137,0h-.056v.356l.05,0,.234.018c.133.011.2.029.215.058a1.588,1.588,0,0,1,.038.481v.937c-.089.005-.21.009-.457.009h-.923c-.247,0-.368,0-.457-.009v-.937a1.6,1.6,0,0,1,.038-.481c.015-.03.082-.048.215-.059l.233-.018.05,0v-.356h-.056l-.135,0c-.237.007-.532.015-.842.015s-.612-.008-.85-.015l-.134,0H91.6v.356l.051,0,.233.018c.132.011.2.029.214.058a1.577,1.577,0,0,1,.039.481v2.55a1.607,1.607,0,0,1-.038.482c-.015.03-.084.049-.215.06l-.233.016-.051,0v.358h.056l.154,0c.233-.006.523-.015.83-.015s.591.008.823.015l.155,0h.056v-.358l-.05,0-.233-.016c-.131-.011-.2-.03-.215-.06a1.612,1.612,0,0,1-.038-.482V93.24c.082-.006.2-.01.457-.01h.923c.254,0,.375,0,.457.01v1.135a1.59,1.59,0,0,1-.038.482c-.015.029-.085.049-.215.06l-.233.016-.051,0v.358h.056l.156,0c.233-.006.522-.015.829-.015s.59.008.822.015l.157,0h.056v-.358l-.051,0-.234-.016c-.129-.011-.2-.03-.214-.059a1.63,1.63,0,0,1-.039-.483v-2.55A1.615,1.615,0,0,1,96.011,91.345Z" transform="translate(-77.428 -82.379)"/><g transform="translate(26.981 27.972)"><g transform="translate(0 0)"><path class="a" d="M129.393,132.407c-.139.33-.261.661-.383.99a9.155,9.155,0,0,1-4.024.87c-3.432,0-6.724-2.087-6.724-6.192,0-3.9,2.63-6.417,6.986-6.417a15.087,15.087,0,0,1,4.042.643l.1.122a9.28,9.28,0,0,0-.331,2.453l-.052.051h-.558l-.052-.051a10.877,10.877,0,0,0-.1-1.3,4.734,4.734,0,0,0-3.275-1.079c-3.257,0-4.7,2.574-4.7,4.974,0,3.166,1.83,5.757,5.575,5.757a6.132,6.132,0,0,0,3.292-.939Z" transform="translate(-118.261 -121.659)"/></g></g><g transform="translate(39.123 30.202)"><path class="a" d="M143.073,133.5l.037-.037c.884,0,.908-.072.908-.193a10.99,10.99,0,0,0-.811-2.165h-3.2c-.739,1.681-.763,1.863-.763,2.02,0,.29.315.3.981.338l.036.037v.35l-.036.036c-.436-.024-.921-.061-1.394-.061s-.957.037-1.394.061l-.036-.036v-.35l.036-.037c.739-.023.776-.084,1.115-.81,1.078-2.3,2.326-5.166,3.175-7.223h.509c2.666,6.291,3.03,7.162,3.357,7.718.133.231.242.3.788.315l.036.037v.35l-.036.036c-.521-.024-1.079-.061-1.637-.061s-1.114.037-1.635.061l-.037-.036Zm-1.466-6.207-1.358,3.23h2.714Z" transform="translate(-137.402 -125.272)"/><path class="a" d="M158.956,125.465l.036-.036c.546.024,1.079.06,1.624.06.412,0,.824-.036,1.236-.06l.037.036v.351l-.037.037c-.46,0-.763.06-.908.241a36.562,36.562,0,0,0-.193,4.779c0,1.428.048,2.493.072,3.17l-.072.061a4.86,4.86,0,0,0-1.079-.194c-.909-.98-3.794-4.537-5.551-6.8H154.1v3.158c0,2.807.036,2.916.17,3.037a1.833,1.833,0,0,0,.933.157l.036.037v.35l-.036.036c-.473-.024-.958-.061-1.43-.061s-.958.037-1.431.061l-.036-.036v-.35l.036-.037a1.833,1.833,0,0,0,.933-.157c.133-.12.17-.23.17-3.037v-1.222c0-2.807-.037-2.916-.17-3.037a1.84,1.84,0,0,0-.933-.157l-.036-.037v-.351l.036-.036c.449.024.885.06,1.345.06a6.5,6.5,0,0,0,.91-.06c.436.738,4.617,5.855,5.526,6.945h.024c0-.388-.048-1.67-.048-3.327,0-2.807-.036-2.916-.17-3.037a1.84,1.84,0,0,0-.933-.157l-.036-.037Z" transform="translate(-142.85 -125.272)"/><path class="a" d="M176.4,132.657c-.1.231-.182.46-.267.69a6.373,6.373,0,0,1-2.8.6c-2.387,0-4.678-1.452-4.678-4.308,0-2.711,1.83-4.463,4.86-4.463a10.48,10.48,0,0,1,2.811.447l.074.085a6.42,6.42,0,0,0-.231,1.705l-.036.036h-.388l-.037-.036a7.807,7.807,0,0,0-.072-.908,3.3,3.3,0,0,0-2.279-.749,3.224,3.224,0,0,0-3.273,3.459,3.68,3.68,0,0,0,3.879,4.006,4.262,4.262,0,0,0,2.29-.654Z" transform="translate(-148.829 -125.181)"/><path class="a" d="M182.488,125.465l.036-.036c.606.024,1.187.06,1.769.06,2.241,0,3.781-.036,4.568-.06l.073.06c-.06.63-.109,1.27-.145,1.864l-.036.035H188.4l-.037-.035a3.317,3.317,0,0,0-.109-1.1,7.163,7.163,0,0,0-2.059-.194c-.5,0-.933.036-1.176.048-.06,1.065-.06,2.105-.06,3.146.459.012.957.025,1.417.025.667,0,1.079-.036,1.151-.17a2.251,2.251,0,0,0,.159-.835l.036-.036h.315l.037.036c0,.472-.025.956-.025,1.439,0,.327.025.811.025,1.235l-.037.035h-.315l-.036-.035a3.459,3.459,0,0,0-.17-.871c-.061-.158-.461-.219-1.491-.219-.412,0-.727.013-1.066.025,0,1.125,0,2.262.023,3.375a22.131,22.131,0,0,0,3.406-.157,3.393,3.393,0,0,0,.315-1.247l.037-.035h.388l.036.035c-.049.509-.109,1.308-.134,1.972l-.1.061c-1.612-.049-3.441-.061-4.871-.061a8.8,8.8,0,0,0-1.042.061l-.037-.036v-.231l.05-.059c.4-.182.484-.243.507-.315a26.874,26.874,0,0,0,.086-4.2c0-2.807-.036-2.916-.169-3.037a1.843,1.843,0,0,0-.933-.157l-.036-.037Z" transform="translate(-153.887 -125.272)"/><path class="a" d="M197.7,129.337c.134.011.243.023.365.023a1.786,1.786,0,0,0,1.951-1.814c0-1.029-.776-1.536-1.928-1.536a3.936,3.936,0,0,0-1.042.145c-.012.46-.048,1.21-.048,4.113,0,2.807.036,2.916.169,3.037a1.739,1.739,0,0,0,.885.157l.036.037v.35l-.036.036c-.558-.024-1.14-.061-1.721-.061s-1.163.037-1.769.061l-.036-.036v-.35l.036-.037a1.831,1.831,0,0,0,.933-.157c.133-.12.169-.23.169-3.037v-1.222c0-2.807-.037-2.916-.169-3.037a1.838,1.838,0,0,0-.933-.157l-.036-.037v-.351l.036-.036c.606.024,1.187.06,1.769.06.728,0,1.455-.06,2.132-.06,1.746,0,2.934.338,2.934,1.814a2.454,2.454,0,0,1-2.085,2.371l2.352,3.364c.291.411.436.483.8.483l.037.037v.35l-.037.036c-.279-.024-.606-.061-.92-.061s-.642.037-.97.061c-.946-1.439-2.036-3.109-2.994-4.331Z" transform="translate(-158.287 -125.272)"/></g><g transform="translate(87.13 27.972)"><g transform="translate(0 0)"><path class="a" d="M224.209,132.407c-.139.33-.26.661-.383.99a9.152,9.152,0,0,1-4.023.87c-3.433,0-6.726-2.087-6.726-6.192,0-3.9,2.629-6.417,6.986-6.417a15.082,15.082,0,0,1,4.042.643l.1.122a9.256,9.256,0,0,0-.331,2.453l-.052.051h-.557l-.053-.051a11.01,11.01,0,0,0-.1-1.3,4.737,4.737,0,0,0-3.276-1.079c-3.257,0-4.7,2.574-4.7,4.974,0,3.166,1.829,5.757,5.574,5.757a6.136,6.136,0,0,0,3.294-.939Z" transform="translate(-213.078 -121.659)"/></g></g><g transform="translate(99.599 30.359)"><path class="a" d="M232.734,125.465l.037-.036c.6.024,1.187.06,1.769.06,2.241,0,3.781-.036,4.568-.06l.072.06c-.06.63-.107,1.27-.145,1.864l-.036.035h-.35l-.037-.035a3.317,3.317,0,0,0-.109-1.1,7.167,7.167,0,0,0-2.06-.194c-.5,0-.933.036-1.175.048-.061,1.065-.061,2.105-.061,3.146.461.012.958.025,1.418.025.665,0,1.079-.036,1.151-.17a2.275,2.275,0,0,0,.157-.835l.037-.036h.315l.037.036c0,.472-.026.956-.026,1.439,0,.327.026.811.026,1.235l-.037.035h-.315l-.037-.035a3.455,3.455,0,0,0-.169-.871c-.061-.158-.461-.219-1.492-.219-.411,0-.726.013-1.066.025,0,1.125,0,2.262.025,3.375a22.127,22.127,0,0,0,3.406-.157,3.381,3.381,0,0,0,.315-1.247l.036-.035h.388l.037.035c-.049.509-.11,1.308-.134,1.972l-.1.061c-1.611-.049-3.44-.061-4.87-.061a8.817,8.817,0,0,0-1.044.061l-.036-.036v-.231l.048-.059c.4-.182.485-.243.509-.315a27.444,27.444,0,0,0,.084-4.2c0-2.807-.034-2.916-.168-3.037a1.841,1.841,0,0,0-.933-.157l-.037-.037Z" transform="translate(-232.734 -125.429)"/><path class="a" d="M251.309,125.465l.037-.036c.545.024,1.079.06,1.625.06.411,0,.823-.036,1.235-.06l.037.036v.351l-.037.037c-.46,0-.763.06-.908.241a36.576,36.576,0,0,0-.193,4.779c0,1.428.047,2.493.072,3.17l-.072.061a4.877,4.877,0,0,0-1.08-.194c-.909-.98-3.794-4.537-5.551-6.8h-.025v3.158c0,2.807.037,2.916.17,3.037a1.84,1.84,0,0,0,.934.157l.034.037v.35l-.034.036c-.473-.024-.959-.061-1.431-.061s-.958.037-1.43.061l-.036-.036v-.35l.036-.037a1.833,1.833,0,0,0,.933-.157c.133-.12.169-.23.169-3.037v-1.222c0-2.807-.037-2.916-.169-3.037a1.84,1.84,0,0,0-.933-.157l-.036-.037v-.351l.036-.036c.449.024.884.06,1.346.06a6.475,6.475,0,0,0,.908-.06c.436.738,4.618,5.855,5.527,6.945h.024c0-.388-.049-1.67-.049-3.327,0-2.807-.036-2.916-.169-3.037a1.841,1.841,0,0,0-.933-.157l-.037-.037Z" transform="translate(-237.093 -125.429)"/><path class="a" d="M262.278,133.5l.036-.037a1.831,1.831,0,0,0,.933-.157c.134-.12.171-.23.171-3.037,0-.871-.049-2.2-.075-4.149-.5-.013-.86-.013-1.247-.013-.63,0-.862.025-.946.133s-.1.194-.182,1.114l-.048.048h-.376l-.035-.037a12.957,12.957,0,0,0-.074-1.9l.036-.036c1.14.036,2.532.06,3.611.06s2.472-.024,3.612-.06l.036.036a13.3,13.3,0,0,0-.072,1.9l-.037.037h-.376l-.048-.048c-.086-.92-.1-1.017-.181-1.114s-.316-.133-.945-.133c-.389,0-.752,0-1.248.013-.025,1.947-.074,3.279-.074,4.149,0,2.807.036,2.916.17,3.037a1.835,1.835,0,0,0,.933.157l.037.037v.35l-.037.036c-.606-.024-1.188-.061-1.77-.061s-1.163.037-1.769.061l-.036-.036Z" transform="translate(-242.862 -125.429)"/><path class="a" d="M272.721,125.465l.036-.036c.606.024,1.187.06,1.769.06,2.242,0,3.78-.036,4.569-.06l.072.06c-.061.63-.109,1.27-.147,1.864l-.036.035h-.351l-.037-.035a3.317,3.317,0,0,0-.109-1.1,7.164,7.164,0,0,0-2.06-.194c-.5,0-.931.036-1.174.048-.061,1.065-.061,2.105-.061,3.146.46.012.957.025,1.418.025.666,0,1.079-.036,1.152-.17a2.287,2.287,0,0,0,.156-.835l.037-.036h.315l.036.036c0,.472-.023.956-.023,1.439,0,.327.023.811.023,1.235l-.036.035h-.315l-.037-.035a3.455,3.455,0,0,0-.169-.871c-.06-.158-.461-.219-1.49-.219-.413,0-.729.013-1.067.025,0,1.125,0,2.262.023,3.375a22.1,22.1,0,0,0,3.4-.157,3.355,3.355,0,0,0,.316-1.247l.037-.035h.386l.037.035c-.048.509-.109,1.308-.134,1.972l-.1.061c-1.612-.049-3.442-.061-4.872-.061a8.815,8.815,0,0,0-1.043.061l-.035-.036v-.231l.048-.059c.4-.182.485-.243.508-.315a27.021,27.021,0,0,0,.086-4.2c0-2.807-.037-2.916-.17-3.037a1.838,1.838,0,0,0-.933-.157l-.036-.037Z" transform="translate(-247.354 -125.429)"/><path class="a" d="M287.93,129.337c.134.011.243.023.364.023a1.784,1.784,0,0,0,1.95-1.814c0-1.029-.776-1.536-1.927-1.536a3.933,3.933,0,0,0-1.042.145c-.012.46-.048,1.21-.048,4.113,0,2.807.036,2.916.17,3.037a1.736,1.736,0,0,0,.884.157l.036.037v.35l-.036.036c-.558-.024-1.139-.061-1.72-.061s-1.163.037-1.77.061l-.035-.036v-.35l.035-.037a1.835,1.835,0,0,0,.933-.157c.133-.12.17-.23.17-3.037v-1.222c0-2.807-.037-2.916-.17-3.037a1.841,1.841,0,0,0-.933-.157l-.035-.037v-.351l.035-.036c.606.024,1.188.06,1.77.06.727,0,1.453-.06,2.132-.06,1.746,0,2.933.338,2.933,1.814a2.453,2.453,0,0,1-2.084,2.371l2.352,3.364c.29.411.436.483.8.483l.037.037v.35l-.037.036c-.279-.024-.606-.061-.921-.061s-.643.037-.97.061c-.945-1.439-2.036-3.109-2.994-4.331Z" transform="translate(-251.755 -125.429)"/></g></svg>