<svg xmlns="http://www.w3.org/2000/svg" width="290.991" height="18.775" viewBox="0 0 290.991 18.775"><defs><style>.a{fill:#fff;stroke:#fff;stroke-width:0.5px;}</style></defs><path class="a" d="M-284.275-12.45a9.555,9.555,0,0,1-1.3-4.125c-.825.075-1.5.075-2.075.075-.625,0-1.225-.025-1.975-.075a.468.468,0,0,0-.1.625l.4.05c1.525.2,1.725.575,1.675,2.15-.05,1.375-.15,3.5-.275,5.575-.15,2.475-.275,3.85-.425,5.5-.15,1.75-.5,1.9-1.55,2.05l-.55.075a.494.494,0,0,0,.05.625c.85-.05,1.75-.075,2.55-.075.95,0,1.925.025,2.775.075.175-.075.2-.475.025-.625L-286-.625c-.975-.075-1.125-.475-1.125-2.325,0-2.125.1-4.35.175-5.875.075-1.45.15-2.9.25-4.45h.05c.55,1.15,1.075,2.45,1.6,3.6l2.25,4.825c.575,1.225,1.775,3.675,2.2,5a.305.305,0,0,0,.225.1.29.29,0,0,0,.25-.1c.45-1.15,1.575-3.5,2.7-5.7l2.225-4.375c.5-.975,1.45-2.975,1.625-3.25h.05l.075,10.425c0,1.6,0,2-1.225,2.125l-.725.075a.463.463,0,0,0,.05.625C-274.325.025-273.2,0-272.325,0c.9,0,1.925.025,2.95.075a.461.461,0,0,0,.05-.625l-.8-.075c-1.175-.1-1.15-.775-1.225-2.025-.2-3.6-.225-8.225-.275-10.875-.025-1.75.175-2.225,1.75-2.375l.525-.05a.526.526,0,0,0-.025-.625c-.775.05-1.6.075-2.225.075-.5,0-1.025,0-1.875-.075-.05,1.15-.775,2.525-1.9,4.8L-277.725-7c-.625,1.275-1.25,2.575-1.925,3.75h-.05c-.6-1.1-1.15-2.25-1.725-3.425ZM-265.2-4.1c-1.6.575-2.075,1.15-2.075,2.125a2.339,2.339,0,0,0,.775,1.75,2.587,2.587,0,0,0,1.75.575,3.7,3.7,0,0,0,1.8-.625,3.839,3.839,0,0,1,.975-.5c.15,0,.3.2.4.35A2,2,0,0,0-259.95.35a2.623,2.623,0,0,0,2.1-1.1c0-.175-.075-.325-.175-.325-.075,0-.2.1-.325.175a1.436,1.436,0,0,1-.625.15c-.975,0-1.2-1.025-1.15-2.175l.15-4.35c.075-1.875-.8-2.925-2.6-2.925-1.825,0-4.65,1.775-4.65,3.075a.316.316,0,0,0,.35.35,2.69,2.69,0,0,0,1.425-.475c.2-.15.225-.45.25-.85.05-.775.9-1.125,1.6-1.125,1.55,0,1.85,1.25,1.825,2.175L-261.8-5.9c0,.375-.05.6-.425.725Zm-.15,1.825c0-.975.725-1.35,2.2-1.85a4.718,4.718,0,0,1,1.025-.25c.15,0,.25.05.25.325l-.05,1.475c-.025.525-.025.875-.325,1.175a2.827,2.827,0,0,1-1.525.625A1.507,1.507,0,0,1-265.35-2.275ZM-252.9-10.2c-1.9,0-3.4,1.025-3.4,2.85,0,1.375,1.025,2.25,2.475,3.075.925.525,1.925,1.15,1.925,2.3a1.54,1.54,0,0,1-1.675,1.6c-1.425,0-2.225-1.2-2.65-2.575a.425.425,0,0,0-.575.025A7.434,7.434,0,0,0-256.5-.4a4.159,4.159,0,0,0,2.675.75c1.85,0,3.6-.95,3.6-2.85,0-1.775-1.225-2.625-2.55-3.375-.875-.5-1.925-1.05-1.925-2.075a1.477,1.477,0,0,1,1.6-1.525,2.438,2.438,0,0,1,2.2,1.825.435.435,0,0,0,.6-.075,5.839,5.839,0,0,0-.4-2.025A4.424,4.424,0,0,0-252.9-10.2Zm8.575,0c-1.9,0-3.4,1.025-3.4,2.85,0,1.375,1.025,2.25,2.475,3.075.925.525,1.925,1.15,1.925,2.3A1.54,1.54,0,0,1-245-.375c-1.425,0-2.225-1.2-2.65-2.575a.425.425,0,0,0-.575.025,7.433,7.433,0,0,0,.3,2.525,4.159,4.159,0,0,0,2.675.75c1.85,0,3.6-.95,3.6-2.85,0-1.775-1.225-2.625-2.55-3.375-.875-.5-1.925-1.05-1.925-2.075a1.477,1.477,0,0,1,1.6-1.525,2.438,2.438,0,0,1,2.2,1.825.435.435,0,0,0,.6-.075,5.839,5.839,0,0,0-.4-2.025A4.424,4.424,0,0,0-244.325-10.2Zm26.875,6.25c0-1.275.025-1.975,1.075-2.1l.4-.05A.436.436,0,0,0-216-6.725c-.825.05-1.675.075-2.65.075-1.475,0-2.85-.025-3.575-.075a.417.417,0,0,0,0,.625l1.1.125c1.55.175,1.625.325,1.625,2.425v1a2.785,2.785,0,0,1-.25,1.425c-.275.425-1.2.75-2.75.75-5.025,0-7.5-3.775-7.5-8.575,0-3.75,2.125-7.2,6.975-7.2,2.55,0,4.425.85,5.125,3.55.15.15.6.125.675-.075A28.125,28.125,0,0,1-217.6-16.3a6.6,6.6,0,0,1-1.55-.225,14.941,14.941,0,0,0-3.175-.375c-3.775,0-6.25,1.175-7.925,2.925A8.579,8.579,0,0,0-232.5-8.05a7.87,7.87,0,0,0,2.3,5.675A10.417,10.417,0,0,0-222.575.4,19.542,19.542,0,0,0-218.1-.25a5.6,5.6,0,0,1,1.225-.225.206.206,0,0,0,.025-.3c-.45-.175-.6-.775-.6-1.775Zm10.7-2.45c1.05,0,1.4-.025,1.475-.175a1.545,1.545,0,0,0,.1-.65,3.276,3.276,0,0,0-3.55-2.975c-3,0-5.025,2.575-5.025,5.65A5.308,5.308,0,0,0-212.7-1.3,4.48,4.48,0,0,0-209.075.35a4.369,4.369,0,0,0,3.925-2.325.33.33,0,0,0-.45-.3,2.694,2.694,0,0,1-2.3,1.225c-2.675,0-4.15-2.15-4.15-4.675,0-.625.025-.675.675-.675Zm-4.85-.75c-.175,0-.175-.075-.175-.125A2.935,2.935,0,0,1-209-9.45c1.45,0,1.925.875,1.925,1.575,0,.325-.075.425-.15.475-.2.15-.75.25-2.6.25Zm9.825,4.35c0,1.8-.025,2.05-.95,2.175l-.525.075a.437.437,0,0,0,.05.625c.7-.05,1.45-.075,2.35-.075.875,0,1.6.025,2.275.075a.437.437,0,0,0,.05-.625l-.45-.075c-.9-.15-.95-.375-.95-2.175V-6.625a2.106,2.106,0,0,1,.375-1.5A2.726,2.726,0,0,1-197.425-9a2.168,2.168,0,0,1,2.35,2.475V-2.8c0,1.8-.025,2.025-.95,2.175l-.475.075a.437.437,0,0,0,.05.625c.675-.05,1.425-.075,2.325-.075.875,0,1.6.025,2.35.075a.437.437,0,0,0,.05-.625l-.55-.075c-.9-.125-.95-.375-.95-2.175V-7.1a2.774,2.774,0,0,0-2.925-3.1,6.854,6.854,0,0,0-3.5,1.275.262.262,0,0,1-.275-.275c0-.225,0-.6.05-1.175a.292.292,0,0,0-.275-.175,13.623,13.623,0,0,1-2.5,1.225.342.342,0,0,0-.025.45l.225.15c.675.45.675.575.675,1.55Zm19.05-3.6c1.05,0,1.4-.025,1.475-.175a1.545,1.545,0,0,0,.1-.65A3.276,3.276,0,0,0-184.7-10.2c-3,0-5.025,2.575-5.025,5.65a5.308,5.308,0,0,0,1.05,3.25A4.48,4.48,0,0,0-185.05.35a4.369,4.369,0,0,0,3.925-2.325.33.33,0,0,0-.45-.3,2.694,2.694,0,0,1-2.3,1.225c-2.675,0-4.15-2.15-4.15-4.675,0-.625.025-.675.675-.675Zm-4.85-.75c-.175,0-.175-.075-.175-.125a2.935,2.935,0,0,1,2.775-2.175c1.45,0,1.925.875,1.925,1.575,0,.325-.075.425-.15.475-.2.15-.75.25-2.6.25Zm9.825,4.35c0,1.8-.025,2.025-.95,2.175l-.475.075a.437.437,0,0,0,.05.625c.65-.05,1.4-.075,2.3-.075.875,0,1.6.025,2.775.075A.437.437,0,0,0-174-.55l-.9-.075c-.95-.075-1-.375-1-2.175V-6.2a3.8,3.8,0,0,1,.325-1.925,1.109,1.109,0,0,1,.9-.5,2.05,2.05,0,0,1,1.1.4.96.96,0,0,0,.55.175A1.109,1.109,0,0,0-171.95-9.2a1.036,1.036,0,0,0-1.125-1,5.052,5.052,0,0,0-2.75,1.5q-.075-.038-.075-.225v-1.45c0-.1-.075-.15-.2-.175a19.364,19.364,0,0,1-2.525,1.225.342.342,0,0,0-.025.45l.225.15c.675.45.675.575.675,1.55Zm9.3-1.3c-1.6.575-2.075,1.15-2.075,2.125a2.339,2.339,0,0,0,.775,1.75A2.587,2.587,0,0,0-168,.35a3.7,3.7,0,0,0,1.8-.625,3.838,3.838,0,0,1,.975-.5c.15,0,.3.2.4.35A2,2,0,0,0-163.2.35a2.623,2.623,0,0,0,2.1-1.1c0-.175-.075-.325-.175-.325-.075,0-.2.1-.325.175a1.437,1.437,0,0,1-.625.15c-.975,0-1.2-1.025-1.15-2.175l.15-4.35c.075-1.875-.8-2.925-2.6-2.925-1.825,0-4.65,1.775-4.65,3.075a.316.316,0,0,0,.35.35A2.69,2.69,0,0,0-168.7-7.25c.2-.15.225-.45.25-.85.05-.775.9-1.125,1.6-1.125,1.55,0,1.85,1.25,1.825,2.175l-.025,1.15c0,.375-.05.6-.425.725Zm-.15,1.825c0-.975.725-1.35,2.2-1.85a4.718,4.718,0,0,1,1.025-.25c.15,0,.25.05.25.325l-.05,1.475c-.025.525-.025.875-.325,1.175a2.827,2.827,0,0,1-1.525.625A1.507,1.507,0,0,1-168.6-2.275Zm11.85-12.35c0-1.1.05-2.35.075-3.1a.275.275,0,0,0-.25-.15,17.739,17.739,0,0,1-2.7,1.05.38.38,0,0,0,0,.5l.25.15c.75.45.775.6.775,2.075V-2.8c0,1.8-.025,2.05-.95,2.175l-.575.075a.437.437,0,0,0,.05.625c.75-.05,1.5-.075,2.4-.075.875,0,1.6.025,2.425.075a.437.437,0,0,0,.05-.625l-.6-.075c-.9-.125-.95-.375-.95-2.175Zm10.475,6.475a8.059,8.059,0,0,0,3.55,6.875A10.952,10.952,0,0,0-136.5.4a14.733,14.733,0,0,0,3.95-.575,5.034,5.034,0,0,1,.875-.25,9.4,9.4,0,0,0,1.2-3.425.526.526,0,0,0-.65-.1A5.33,5.33,0,0,1-136.35-.375c-4.1,0-7.425-2.9-7.425-8.15,0-5.175,3.25-7.6,7.075-7.6,3.625,0,4.75,1.95,5.125,3.65a.527.527,0,0,0,.675-.05c-.2-1.525-.325-3.1-.35-3.675a1.886,1.886,0,0,1-.7-.1,19.291,19.291,0,0,0-4.425-.6,10.773,10.773,0,0,0-6.75,2.125A8.3,8.3,0,0,0-146.275-8.15Zm19.75,4.05c-1.6.575-2.075,1.15-2.075,2.125a2.339,2.339,0,0,0,.775,1.75,2.587,2.587,0,0,0,1.75.575,3.7,3.7,0,0,0,1.8-.625,3.838,3.838,0,0,1,.975-.5c.15,0,.3.2.4.35a2,2,0,0,0,1.625.775,2.623,2.623,0,0,0,2.1-1.1c0-.175-.075-.325-.175-.325-.075,0-.2.1-.325.175a1.436,1.436,0,0,1-.625.15c-.975,0-1.2-1.025-1.15-2.175l.15-4.35c.075-1.875-.8-2.925-2.6-2.925-1.825,0-4.65,1.775-4.65,3.075a.316.316,0,0,0,.35.35,2.69,2.69,0,0,0,1.425-.475c.2-.15.225-.45.25-.85.05-.775.9-1.125,1.6-1.125,1.55,0,1.85,1.25,1.825,2.175l-.025,1.15c0,.375-.05.6-.425.725Zm-.15,1.825c0-.975.725-1.35,2.2-1.85a4.718,4.718,0,0,1,1.025-.25c.15,0,.25.05.25.325l-.05,1.475c-.025.525-.025.875-.325,1.175a2.827,2.827,0,0,1-1.525.625A1.507,1.507,0,0,1-126.675-2.275Zm10.25-.525c0,1.8-.025,2.05-.95,2.175l-.525.075a.437.437,0,0,0,.05.625c.7-.05,1.45-.075,2.35-.075.875,0,1.6.025,2.275.075a.437.437,0,0,0,.05-.625l-.45-.075c-.9-.15-.95-.375-.95-2.175V-6.625a2.106,2.106,0,0,1,.375-1.5A2.726,2.726,0,0,1-112.075-9a2.168,2.168,0,0,1,2.35,2.475V-2.8c0,1.8-.025,2.025-.95,2.175l-.475.075a.437.437,0,0,0,.05.625c.675-.05,1.425-.075,2.325-.075.875,0,1.6.025,2.35.075a.437.437,0,0,0,.05-.625l-.55-.075c-.9-.125-.95-.375-.95-2.175V-7.1a2.774,2.774,0,0,0-2.925-3.1,6.854,6.854,0,0,0-3.5,1.275.262.262,0,0,1-.275-.275c0-.225,0-.6.05-1.175a.292.292,0,0,0-.275-.175,13.622,13.622,0,0,1-2.5,1.225.342.342,0,0,0-.025.45l.225.15c.675.45.675.575.675,1.55ZM-98.3-10.2c-4.15,0-6.05,2.875-6.05,5.575a4.977,4.977,0,0,0,1.45,3.7A4.845,4.845,0,0,0-99.475.35,4.555,4.555,0,0,0-95.3-2.2a.394.394,0,0,0-.45-.35,3.05,3.05,0,0,1-2.775,1.5,4.108,4.108,0,0,1-4.025-4.275c0-2.65,1.7-4.025,3.45-4.025a3.41,3.41,0,0,1,2.5,1.325.437.437,0,0,0,.35.175c.3,0,.55-.475.55-.925a1.417,1.417,0,0,0-.375-1A6.235,6.235,0,0,0-98.3-10.2Zm11.425,3.8c1.05,0,1.4-.025,1.475-.175a1.545,1.545,0,0,0,.1-.65A3.276,3.276,0,0,0-88.85-10.2c-3,0-5.025,2.575-5.025,5.65a5.308,5.308,0,0,0,1.05,3.25A4.48,4.48,0,0,0-89.2.35a4.369,4.369,0,0,0,3.925-2.325.33.33,0,0,0-.45-.3,2.694,2.694,0,0,1-2.3,1.225c-2.675,0-4.15-2.15-4.15-4.675,0-.625.025-.675.675-.675Zm-4.85-.75c-.175,0-.175-.075-.175-.125A2.935,2.935,0,0,1-89.125-9.45c1.45,0,1.925.875,1.925,1.575,0,.325-.075.425-.15.475-.2.15-.75.25-2.6.25ZM-81.9-2.8c0,1.8-.025,2.025-.95,2.175l-.475.075a.437.437,0,0,0,.05.625c.65-.05,1.4-.075,2.3-.075.875,0,1.6.025,2.775.075a.437.437,0,0,0,.05-.625l-.9-.075C-80-.7-80.05-1-80.05-2.8V-6.2a3.8,3.8,0,0,1,.325-1.925,1.109,1.109,0,0,1,.9-.5,2.05,2.05,0,0,1,1.1.4.96.96,0,0,0,.55.175A1.109,1.109,0,0,0-76.1-9.2a1.036,1.036,0,0,0-1.125-1,5.052,5.052,0,0,0-2.75,1.5q-.075-.038-.075-.225v-1.45c0-.1-.075-.15-.2-.175a19.363,19.363,0,0,1-2.525,1.225.342.342,0,0,0-.025.45l.225.15c.675.45.675.575.675,1.55Zm14.2-5.35a8.059,8.059,0,0,0,3.55,6.875A10.952,10.952,0,0,0-57.925.4a14.733,14.733,0,0,0,3.95-.575,5.034,5.034,0,0,1,.875-.25A9.4,9.4,0,0,0-51.9-3.85a.526.526,0,0,0-.65-.1A5.33,5.33,0,0,1-57.775-.375c-4.1,0-7.425-2.9-7.425-8.15,0-5.175,3.25-7.6,7.075-7.6,3.625,0,4.75,1.95,5.125,3.65a.527.527,0,0,0,.675-.05c-.2-1.525-.325-3.1-.35-3.675a1.886,1.886,0,0,1-.7-.1,19.291,19.291,0,0,0-4.425-.6,10.773,10.773,0,0,0-6.75,2.125A8.3,8.3,0,0,0-67.7-8.15ZM-43.025-6.4c1.05,0,1.4-.025,1.475-.175a1.545,1.545,0,0,0,.1-.65A3.276,3.276,0,0,0-45-10.2c-3,0-5.025,2.575-5.025,5.65a5.308,5.308,0,0,0,1.05,3.25A4.48,4.48,0,0,0-45.35.35a4.369,4.369,0,0,0,3.925-2.325.33.33,0,0,0-.45-.3,2.694,2.694,0,0,1-2.3,1.225c-2.675,0-4.15-2.15-4.15-4.675,0-.625.025-.675.675-.675Zm-4.85-.75c-.175,0-.175-.075-.175-.125A2.935,2.935,0,0,1-45.275-9.45c1.45,0,1.925.875,1.925,1.575,0,.325-.075.425-.15.475-.2.15-.75.25-2.6.25ZM-38.05-2.8c0,1.8-.025,2.05-.95,2.175l-.525.075a.437.437,0,0,0,.05.625c.7-.05,1.45-.075,2.35-.075.875,0,1.6.025,2.275.075A.437.437,0,0,0-34.8-.55l-.45-.075c-.9-.15-.95-.375-.95-2.175V-6.625a2.106,2.106,0,0,1,.375-1.5A2.726,2.726,0,0,1-33.7-9a2.168,2.168,0,0,1,2.35,2.475V-2.8c0,1.8-.025,2.025-.95,2.175l-.475.075a.437.437,0,0,0,.05.625C-32.05.025-31.3,0-30.4,0c.875,0,1.6.025,2.35.075A.437.437,0,0,0-28-.55l-.55-.075C-29.45-.75-29.5-1-29.5-2.8V-7.1a2.774,2.774,0,0,0-2.925-3.1,6.854,6.854,0,0,0-3.5,1.275A.262.262,0,0,1-36.2-9.2c0-.225,0-.6.05-1.175a.292.292,0,0,0-.275-.175,13.622,13.622,0,0,1-2.5,1.225.342.342,0,0,0-.025.45l.225.15c.675.45.675.575.675,1.55Zm18.5-6a.8.8,0,0,0-.025-1.05H-22.35c-.425,0-.45-.025-.45-.475V-11.45c-.1-.175-.4-.175-.525-.125a6.189,6.189,0,0,1-1.05,1.475,4.964,4.964,0,0,1-1.6.775A.416.416,0,0,0-25.9-8.8h.7c.5,0,.525.05.525.725V-2.35c0,1.5.45,2.7,2.6,2.7A3.462,3.462,0,0,0-19.45-.8c.05-.15-.05-.425-.25-.425-.075,0-.4.275-.625.35A1.909,1.909,0,0,1-21-.75c-1.65,0-1.825-1.325-1.825-2.775V-8.2c0-.525.025-.6.45-.6Zm8.725,2.4c1.05,0,1.4-.025,1.475-.175a1.545,1.545,0,0,0,.1-.65A3.276,3.276,0,0,0-12.8-10.2c-3,0-5.025,2.575-5.025,5.65a5.308,5.308,0,0,0,1.05,3.25A4.48,4.48,0,0,0-13.15.35,4.369,4.369,0,0,0-9.225-1.975a.33.33,0,0,0-.45-.3,2.694,2.694,0,0,1-2.3,1.225c-2.675,0-4.15-2.15-4.15-4.675,0-.625.025-.675.675-.675Zm-4.85-.75c-.175,0-.175-.075-.175-.125A2.935,2.935,0,0,1-13.075-9.45c1.45,0,1.925.875,1.925,1.575,0,.325-.075.425-.15.475-.2.15-.75.25-2.6.25ZM-5.85-2.8c0,1.8-.025,2.025-.95,2.175l-.475.075a.437.437,0,0,0,.05.625c.65-.05,1.4-.075,2.3-.075.875,0,1.6.025,2.775.075A.437.437,0,0,0-2.1-.55L-3-.625C-3.95-.7-4-1-4-2.8V-6.2a3.8,3.8,0,0,1,.325-1.925,1.109,1.109,0,0,1,.9-.5,2.05,2.05,0,0,1,1.1.4.96.96,0,0,0,.55.175A1.109,1.109,0,0,0-.05-9.2a1.036,1.036,0,0,0-1.125-1,5.052,5.052,0,0,0-2.75,1.5Q-4-8.738-4-8.925v-1.45c0-.1-.075-.15-.2-.175A19.363,19.363,0,0,1-6.725-9.325a.342.342,0,0,0-.025.45l.225.15c.675.45.675.575.675,1.55Z" transform="translate(290.791 18.125)"/></svg>